<?xml version="1.0" encoding="utf-8"?>
<!-- Generator: Adobe Illustrator 19.0.0, SVG Export Plug-In . SVG Version: 6.00 Build 0)  -->
<svg version="1.1" id="Layer_1" xmlns="http://www.w3.org/2000/svg" xmlns:xlink="http://www.w3.org/1999/xlink" x="0px" y="0px"
	 viewBox="0 0 396 129.5" style="enable-background:new 0 0 396 129.5;" xml:space="preserve">
<style type="text/css">
	.st0{fill-rule:evenodd;clip-rule:evenodd;fill:url(#XMLID_43_);}
	.st1{opacity:0.8;clip-path:url(#XMLID_44_);fill:#231F20;}
	.st2{fill:url(#XMLID_45_);}
	.st3{fill:url(#XMLID_46_);}
	.st4{fill:url(#SVGID_1_);}
	.st5{fill:url(#SVGID_2_);}
</style>
<g id="New_Symbol_6">
</g>
<g id="XMLID_1_">
	
		<radialGradient id="XMLID_43_" cx="198" cy="2977.7683" r="224.3584" gradientTransform="matrix(1 0 0 0.7384 0 -2122.811)" gradientUnits="userSpaceOnUse">
		<stop  offset="0" style="stop-color:#FFFFFF"/>
		<stop  offset="0.7419" style="stop-color:#F6F7FA"/>
		<stop  offset="1" style="stop-color:#EAECF2"/>
	</radialGradient>
	<rect id="XMLID_2_" x="0" y="-68" class="st0" width="396" height="288"/>
	<g id="XMLID_2796_">
		<defs>
			<rect id="XMLID_2797_" x="0" y="-68" width="396" height="288"/>
		</defs>
		<clipPath id="XMLID_44_">
			<use xlink:href="#XMLID_2797_"  style="overflow:visible;"/>
		</clipPath>
		<path id="XMLID_2798_" class="st1" d="M266.5,69.6c-0.3-0.1-0.5,0-0.7,0.2l-5.8-6.3c0.1-0.1,0.2-0.2,0.2-0.4
			c0.1-0.4-0.2-0.9-0.6-1c-0.4-0.1-0.9,0.2-1,0.6c0,0,0,0.1,0,0.1l-38.8,0.5c0-0.3-0.3-0.6-0.6-0.7c-0.3-0.1-0.6,0.1-0.8,0.3
			l-18.3-11c0-0.1,0.1-0.1,0.1-0.2c0.1-0.4-0.2-0.9-0.6-1c-0.4-0.1-0.9,0.2-1,0.6c0,0.1,0,0.1,0,0.2l-28.4,4.1
			c-0.1-0.3-0.3-0.5-0.6-0.6c-0.4-0.1-0.7,0.1-0.9,0.4l-29.4-11.4c0,0,0,0,0,0c0.1-0.4-0.2-0.9-0.6-1c-0.4-0.1-0.9,0.2-1,0.6
			c0,0.1,0,0.3,0,0.4l-21.1,8.9c-0.1-0.2-0.3-0.4-0.5-0.4c-0.4-0.1-0.7,0.1-0.9,0.4L89.1,42c0,0,0,0,0,0c0.1-0.4-0.2-0.9-0.6-1
			c-0.4-0.1-0.8,0.1-0.9,0.5l-34.3-9.8c0.1-0.4-0.2-0.8-0.6-0.9c-0.2,0-0.4,0-0.6,0.1L28.4-1.3c0.1-0.1,0.2-0.2,0.2-0.4
			c0.1-0.4-0.2-0.9-0.6-1c-0.4-0.1-0.9,0.2-1,0.6c0,0,0,0.1,0,0.1l-40.6,3.3c-0.1-0.3-0.3-0.5-0.6-0.6c-0.4-0.1-0.9,0.2-1,0.6
			c0,0.1,0,0.3,0,0.4l-33.7,13.7c-0.1-0.2-0.3-0.3-0.5-0.4c-0.4-0.1-0.9,0.2-1,0.6c-0.1,0.2,0,0.4,0.1,0.6L-79,40
			c-0.1-0.1-0.2-0.2-0.4-0.2c-0.4-0.1-0.9,0.2-1,0.6c0,0.1,0,0.1,0,0.2l-36.8,6c-0.1-0.3-0.3-0.5-0.6-0.6c-0.4-0.1-0.9,0.2-1,0.6
			c-0.1,0.4,0.2,0.9,0.6,1c0.2,0,0.4,0,0.6-0.1l13.1,17.8c-0.1,0.1-0.2,0.2-0.3,0.4c-0.1,0.4,0.2,0.9,0.6,1c0.3,0.1,0.6,0,0.8-0.3
			L-78,84.9c0,0.1-0.1,0.1-0.1,0.2c-0.1,0.4,0.2,0.9,0.6,1c0.4,0.1,0.9-0.2,1-0.6c0-0.1,0-0.3,0-0.4l29.6-11.4
			c0.1,0.2,0.3,0.4,0.5,0.4c0.4,0.1,0.8-0.1,0.9-0.5l35.3,8.8c0,0.4,0.2,0.8,0.6,0.9c0.3,0.1,0.6,0,0.7-0.2l28.9,22.5
			c0,0.1-0.1,0.1-0.1,0.2c-0.1,0.4,0.2,0.9,0.6,1c0.4,0.1,0.9-0.2,1-0.6c0-0.1,0-0.2,0-0.4l14.7-4.4c0.1,0.2,0.3,0.4,0.6,0.5
			c0.3,0.1,0.7-0.1,0.9-0.4l28.1,14c0,0,0,0.1,0,0.1c-0.1,0.4,0.2,0.9,0.6,1c0.4,0.1,0.9-0.2,1-0.6c0-0.2,0-0.3,0-0.4l32.7-15.8
			c0.1,0.2,0.3,0.3,0.5,0.4c0.3,0.1,0.6-0.1,0.8-0.3l28.7,17.3c0,0-0.1,0.1-0.1,0.1c-0.1,0.4,0.2,0.9,0.6,1c0.4,0.1,0.9-0.2,1-0.6
			c0-0.2,0-0.4-0.1-0.5l22.2-12.9c0.1,0.2,0.3,0.3,0.5,0.3c0.4,0.1,0.9-0.2,1-0.6c0-0.1,0-0.3,0-0.4l32.4-12.1
			c0.1,0.2,0.3,0.4,0.5,0.4c0.4,0.1,0.9-0.2,1-0.6c0.1-0.2,0-0.5-0.1-0.6l7.8-6.7l33.3-0.1c0,0.3,0.3,0.6,0.6,0.7
			c0.4,0.1,0.9-0.2,1-0.6c0-0.1,0-0.3,0-0.4l34-13c0.1,0.2,0.3,0.4,0.5,0.4c0.4,0.1,0.9-0.2,1-0.6C267.2,70.1,266.9,69.7,266.5,69.6
			z M-117.1,46.9l36.8-6c0,0.1,0.1,0.2,0.1,0.3l-23.2,24.2c-0.1-0.1-0.2-0.1-0.3-0.1c-0.2,0-0.4,0-0.6,0.1l-13.1-17.8
			c0.1-0.1,0.2-0.2,0.3-0.4C-117.1,47-117.1,46.9-117.1,46.9z M155.1,103.4c-0.1-0.1-0.2-0.2-0.3-0.2l7-18.6c0.3,0,0.5-0.2,0.6-0.5
			l18.8,5.3L155.1,103.4z M66.8,115.1c-0.1,0-0.2,0-0.3,0l-7.7-35.2c0.2-0.1,0.4-0.3,0.5-0.5l19.4,3.3c0,0.3,0.1,0.6,0.4,0.8
			L66.8,115.1C66.8,115.1,66.8,115.1,66.8,115.1z M37.2,100.4c-0.1,0-0.3,0-0.4,0L23.6,70.3c0.2-0.1,0.3-0.2,0.3-0.4L57.8,79
			c0,0.2,0,0.4,0.2,0.6l-20.5,20.9C37.5,100.4,37.4,100.4,37.2,100.4z M-103.2,65.5L-80,41.2c0.1,0.1,0.2,0.1,0.3,0.1
			c0.1,0,0.2,0,0.3,0l3.6,18.5c-0.3,0.1-0.5,0.3-0.6,0.6c0,0.1,0,0.2,0,0.2l-26.7,5C-103.1,65.6-103.1,65.5-103.2,65.5z M-48.9,16.5
			l18.5,19.8c-0.1,0.1-0.1,0.2-0.2,0.3l-19.2-3c0-0.4-0.2-0.8-0.6-0.8c0,0,0,0-0.1,0l1.2-16.1C-49.2,16.7-49.1,16.6-48.9,16.5z
			 M27.7-1.1l-4.2,26.4c-0.4,0-0.7,0.2-0.8,0.6c0,0,0,0,0,0L4.2,24.1c0-0.2-0.1-0.4-0.2-0.5L27.4-1.2C27.5-1.1,27.6-1.1,27.7-1.1z
			 M51.7,31.5c0,0.1,0,0.1,0,0.2l-13.6,4.3l-14-9.5c0,0,0-0.1,0.1-0.1L51.7,31.5z M198.8,52.1c0.1,0.1,0.2,0.2,0.4,0.3l-8.6,30.6
			l-15.2-19.5L198.8,52.1z M219.6,64.1c0.1-0.1,0.2-0.2,0.3-0.4l26.6,6.1c0,0,0,0,0,0l-23,1L219.6,64.1z M246.5,70.1
			c0,0.1,0.1,0.2,0.1,0.3l-15.2,13c-0.1-0.1-0.2-0.2-0.4-0.2c-0.2,0-0.4,0-0.5,0.1l-7-12.1L246.5,70.1z M246.8,70.5
			c0.1,0.1,0.2,0.2,0.4,0.2c0.4,0.1,0.9-0.2,1-0.6c0,0,0-0.1,0-0.1l1.5,0l-16.9,12.4L246.8,70.5z M248.1,69.9
			C248.1,69.9,248.1,69.8,248.1,69.9l2.5-0.6l-0.9,0.7L248.1,69.9z M211.9,70.9c-0.1-0.1-0.2-0.1-0.3-0.2c-0.1,0-0.2,0-0.3,0
			l6.3-5.7L211.9,70.9z M210.6,71.3C210.6,71.3,210.6,71.3,210.6,71.3c-0.1,0.2,0,0.4,0.1,0.6l-2.2,1.4L210.6,71.3z M211.9,71
			l6.7-6.9c0.1,0.1,0.2,0.1,0.3,0.2c0.2,0,0.4,0,0.5-0.1l3.9,6.7l-11.2,0.5C212.1,71.2,212,71.1,211.9,71z M258.3,67.5l-7,1.5l2.8-2
			L258.3,67.5C258.3,67.4,258.3,67.5,258.3,67.5z M258.3,67.2C258.3,67.2,258.3,67.2,258.3,67.2l-4-0.4l4.6-3.4
			c0.1,0.1,0.2,0.2,0.4,0.2c0,0,0,0,0.1,0l-0.3,2.9C258.8,66.6,258.4,66.8,258.3,67.2z M254,66.8l-1-0.1l5.3-3.1L254,66.8z
			 M253.8,67l-2.9,2.2l-2.8,0.6c0,0,0-0.1,0-0.1l4.7-2.7L253.8,67z M248,69.5c-0.1-0.2-0.3-0.3-0.5-0.3c-0.4-0.1-0.8,0.1-0.9,0.5
			l-26-6l32,3.2L248,69.5z M210.9,70.7l-0.4-0.7l7.1-5.2L210.9,70.7z M210.8,70.8l-3.4,3.1l-14.3,9L210.4,70L210.8,70.8z
			 M136.7,97.2c-0.1-0.1-0.2-0.2-0.3-0.3l6.5-17.9l4.3,1.1l2.9,9.8L136.7,97.2z M59.4,79.2c0-0.2,0-0.4-0.1-0.5l10.2-9.1L79,82
			c-0.1,0.1-0.2,0.2-0.2,0.4L59.4,79.2z M24,69.7c0-0.1,0-0.2,0-0.3l24.8-9.9l9.4,18.9c-0.1,0.1-0.2,0.2-0.3,0.4L24,69.7z
			 M-49.9,33.9C-49.9,33.9-49.9,33.8-49.9,33.9l19.3,3c0,0.3,0.1,0.6,0.4,0.7l-2.3,5.1L-49.9,33.9z M52.3,32.3c0.1,0,0.1,0,0.2,0
			L53,45.4c-0.2,0-0.4,0.1-0.5,0.3L45.5,41l6.5-8.8C52.1,32.2,52.2,32.3,52.3,32.3z M69.6,69.4l15.7-14.1l-5.7,26.5
			c-0.2,0-0.3,0-0.5,0.1L69.6,69.4z M42.6,46l6,3.5l-3.3,2.6l-2.9-5.9C42.5,46.2,42.6,46.1,42.6,46z M42.7,45.9
			c0-0.1,0.1-0.1,0.1-0.2c0,0,0,0,0,0l9.5,0.5c0,0.1,0,0.2,0.1,0.4l-3.6,2.9L42.7,45.9z M52.5,46.7c0.1,0.1,0.2,0.2,0.4,0.2
			c0.1,0,0.2,0,0.2,0l0.9,5.6l-5.1-3L52.5,46.7z M58,55.6l-3.1,1.2l-0.7-4l3.8,2.2c0,0.1-0.1,0.1-0.1,0.2C58,55.4,58,55.5,58,55.6z
			 M58.1,55.8c0.1,0.2,0.3,0.3,0.5,0.4c0,0,0.1,0,0.1,0l-0.2,22L55,57L58.1,55.8z M58.2,54.9l-3.9-2.3l-1-5.7c0.1,0,0.1,0,0.2-0.1
			l4.9,7.9C58.3,54.8,58.2,54.9,58.2,54.9z M41.2,45.4L13.4,44c0,0,0-0.1,0-0.1l20.6-6.5l7.3,7.6C41.3,45.2,41.2,45.3,41.2,45.4
			C41.2,45.4,41.2,45.4,41.2,45.4z M41.8,46.4c0.2,0,0.3,0,0.4,0l2.9,5.9L23.8,69c0,0,0,0,0,0l17.8-22.8
			C41.6,46.3,41.7,46.3,41.8,46.4z M23.9,69.2l21.3-16.8l3.4,6.9L23.9,69.2C23.9,69.2,23.9,69.2,23.9,69.2z M45.4,52.3l3.4-2.7
			l5.3,3.1l0.7,4.2l-5.9,2.4L45.4,52.3z M54.8,57.1l3.6,21.2c0,0,0,0,0,0L49,59.4L54.8,57.1z M58.8,78.3c0,0-0.1,0-0.1,0l0.2-22.1
			c0.1,0,0.2,0,0.3-0.1l10.1,13.3l-10.2,9.1C59,78.4,58.9,78.3,58.8,78.3z M59.4,56c0.1-0.1,0.2-0.2,0.2-0.4c0-0.1,0-0.1,0-0.2
			l26.2-2.6l-0.5,2.1L69.5,69.2L59.4,56z M85.6,55l2.1-1.9c0.1,0.1,0.1,0.1,0.2,0.1l-7.7,26.7L85.6,55z M87.5,52.5
			C87.5,52.5,87.5,52.5,87.5,52.5l-1.3,0.2l0.1-0.4L87.5,52.5z M87.5,52.7c0,0.1,0.1,0.2,0.1,0.3l-1.9,1.7l0.4-1.9L87.5,52.7z
			 M89.7,55.2l14.5,24.9l-0.5,1.1l-0.9,0L89.7,55.2z M147,50.4l7,16l-8.3,5.7c-0.1-0.1-0.2-0.2-0.4-0.3c0,0,0,0-0.1,0l1.3-21.8
			L147,50.4z M167.8,66.3c0,0.1-0.1,0.1-0.1,0.2c0,0.1,0,0.2,0,0.3l-1.3,0.3l0.4-1.6L167.8,66.3z M161.5,83l-5.7-13l10.4-2.7
			L161.8,83C161.7,83,161.6,83,161.5,83z M145.8,72.3l8.2-5.7l1.4,3.3l-9.6,2.5C145.9,72.4,145.9,72.4,145.8,72.3z M145.8,73.1
			c0-0.1,0.1-0.1,0.1-0.2c0-0.1,0-0.2,0-0.3l9.7-2.5l5.7,13c-0.1,0-0.2,0.1-0.2,0.2L145.8,73.1z M166.4,67.3l1.4-0.4
			c0.1,0.2,0.2,0.3,0.4,0.4l-0.5,1.4l-5.4,13.7L166.4,67.3z M166.2,67.2l-10.5,2.7l-1.5-3.4l7.3-5l5.2,3.9L166.2,67.2z M154.2,66.4
			l-6.9-15.7l14.1,10.7L154.2,66.4z M130.7,75.7l-7.9-2c0,0,0,0,0-0.1l21.3-0.8L130.7,75.7z M105.7,81L105.7,81l10.1-4.5l-9.2,4.3
			L105.7,81z M104.5,80.6c-0.1,0.1-0.3,0.3-0.3,0.5c0,0.1,0,0.1,0,0.1l-0.2,0l0.4-0.9L104.5,80.6z M103.9,81.4l0.3,0
			c0,0.1,0.1,0.2,0.1,0.3l-0.3,0.2c-0.1-0.1-0.1-0.1-0.2-0.2L103.9,81.4z M104,82C104,82,104,81.9,104,82l0.3-0.3
			c0,0,0.1,0.1,0.1,0.1L104,82z M105.7,81.2L105.7,81.2L105.7,81.2C105.7,81.2,105.7,81.2,105.7,81.2z M107.2,80.6l14.2-6.7
			c0,0.1,0.1,0.1,0.1,0.1l-3.5,4.3L107.2,80.6z M121.6,74.2c0.1,0.1,0.2,0.1,0.3,0.1c0.2,0,0.4,0,0.5-0.1l1.6,2.8l-5.8,1.2
			L121.6,74.2z M122.5,74.2c0.1-0.1,0.2-0.2,0.3-0.3l7.5,1.9l-6.1,1.3L122.5,74.2z M121.4,73.2c0,0-0.1,0.1-0.1,0.1
			c0,0.2,0,0.3,0,0.4l-15.7,7c-0.1-0.1-0.2-0.2-0.3-0.3l5.5-13.9L121.4,73.2z M103.7,81.4l-0.1,0.3c0,0,0,0-0.1,0
			c-0.2,0-0.3,0-0.5,0l-0.1-0.2L103.7,81.4z M104.1,82.1l0.4-0.2c0.1,0,0.1,0.1,0.2,0.1l-0.2,0.8l-0.4-0.2c0,0,0,0,0-0.1
			C104.2,82.4,104.1,82.2,104.1,82.1z M105.7,81.3l0.6-0.3l11.4-2.4l-5.3,6.5l-6.8-3.6C105.7,81.5,105.7,81.4,105.7,81.3
			C105.7,81.4,105.7,81.3,105.7,81.3z M131.2,75.8l13.2-2.8c0.1,0.2,0.2,0.4,0.4,0.4l-2,5.4L131.2,75.8z M144.9,73.5
			C144.9,73.5,145,73.5,144.9,73.5c0.1,0,0.2,0,0.3,0l1.9,6.4l-4.2-1.1L144.9,73.5z M145.5,73.4c0.1-0.1,0.2-0.1,0.3-0.2L161,83.4
			c0,0,0,0.1,0,0.1L147.4,80L145.5,73.4z M167.9,66.1L167.9,66.1l-1-0.8l2.4-8.6c0,0,0,0,0,0l-0.8,9.2
			C168.3,65.9,168.1,65.9,167.9,66.1z M115.8,54.2c0.1,0,0.2,0,0.3,0l5.6,18.6c-0.1,0.1-0.2,0.1-0.3,0.2l-10.6-6.6L115.8,54.2
			C115.8,54.2,115.8,54.2,115.8,54.2z M87.5,52.2C87.5,52.2,87.5,52.3,87.5,52.2l-1.3-0.2l0.1-0.5L87.5,52.2z M52.3,45.8
			c0,0.1-0.1,0.1-0.1,0.2c0,0,0,0,0,0l-9.5-0.5c0-0.2-0.1-0.4-0.3-0.5l2.9-3.9L52.3,45.8z M33.9,37.3l-20.5,6.5
			c-0.1-0.1-0.1-0.2-0.2-0.3L23,26.8c0.1,0,0.1,0.1,0.2,0.1c0.2,0.1,0.5,0,0.7-0.2L33.9,37.3z M22.9,26.8L13,43.4
			c-0.1,0-0.1-0.1-0.2-0.1c-0.2,0-0.3,0-0.5,0L7.5,32.8l15.2-6.3C22.7,26.6,22.8,26.7,22.9,26.8z M3.2,24.9c0.2,0,0.3,0,0.5,0
			l3.6,7.8l-16.2,6.7L3,24.8C3,24.9,3.1,24.9,3.2,24.9z M-9.2,39.5l-2.4,1c0,0,0-0.1-0.1-0.1c0,0,0,0,0,0L1.9,25.9L-9.2,39.5z
			 M-12.7,41.7c0.1,0,0.1,0.1,0.2,0.1c0,0,0.1,0,0.1,0l0.1,1.6l-5,6.1L-12.7,41.7z M-12.2,41.7c0.3-0.1,0.6-0.3,0.6-0.6c0,0,0,0,0,0
			l0.9,0.1l-1.5,1.8L-12.2,41.7z M-11.5,41c0-0.1,0-0.2,0-0.2l2.1-0.9l-1,1.2L-11.5,41z M-29.3,37.4c0.1-0.1,0.1-0.2,0.2-0.3
			l14.7,3.4c-0.1,0.4,0.2,0.8,0.6,0.9c0.2,0.1,0.5,0,0.7-0.2c0,0,0,0,0.1,0.1c0.1,0.1,0.1,0.2,0.2,0.3l-4.6,7.9
			c-0.1,0-0.1-0.1-0.2-0.1c-0.2-0.1-0.5,0-0.7,0.2L-29.3,37.4z M-10.3,41.1l1.1-1.4l16.5-6.9l4.9,10.5c-0.2,0.1-0.3,0.3-0.4,0.5
			c0,0,0,0,0,0L-10.3,41.1z M79.9,81.9l8.2-28.6c0.1,0,0.3,0,0.4,0l14.1,28l-22.3,1.2C80.3,82.2,80.1,82,79.9,81.9z M118,78.5
			l6.1-1.3L135.6,97c-0.1,0.1-0.1,0.1-0.2,0.2l-22.8-12L118,78.5z M136.3,96.9c-0.2,0-0.4,0-0.5,0.1l-11.4-19.7l6.4-1.4l12.1,3.1
			L136.3,96.9C136.3,96.9,136.3,96.9,136.3,96.9z M162.1,83.1l2.7-6.8l-2.6,6.9C162.1,83.1,162.1,83.1,162.1,83.1z M169.2,67.1
			c0-0.1,0.1-0.1,0.1-0.2c0-0.2,0-0.3,0-0.4l4.5-2.2l5.7,10.7L169.2,67.1z M169.2,56.6l-2.4,8.6l-5-3.9l7-4.9
			C168.9,56.5,169,56.6,169.2,56.6z M147.1,50.3L147,50c0.1,0,0.1-0.1,0.2-0.1l14.4,11.4L147.1,50.3z M145.8,49.5L145.8,49.5
			c0.1,0.1,0.2,0.2,0.2,0.3l-4.9,4.8l-1-4.3L145.8,49.5z M146.1,49.9c0.1,0.1,0.2,0.1,0.3,0.2c0,0,0,0,0.1,0l-1.4,21.8
			c0,0,0,0-0.1,0l-3.9-17.1L146.1,49.9z M144.9,72c-0.1,0-0.3,0.1-0.4,0.2L132,63.9l9-8.9L144.9,72z M144.4,72.3
			c0,0.1-0.1,0.1-0.1,0.2c0,0,0,0.1,0,0.1l-21.5,0.8c0-0.1-0.1-0.3-0.2-0.4l9.1-9L144.4,72.3z M122.6,72.9
			C122.6,72.9,122.6,72.9,122.6,72.9l6.1-11l3,2L122.6,72.9z M122.4,72.8c0,0-0.1,0-0.1-0.1c-0.1,0-0.2,0-0.3,0l-5.6-18.6
			c0.1,0,0.2-0.1,0.3-0.2l11.9,7.9L122.4,72.8z M110.7,66.4l-0.3-0.2l3.5-8.1L110.7,66.4z M110.7,66.6l-5.5,13.9c0,0,0,0,0,0
			c-0.1,0-0.3,0-0.4,0l-0.2-0.5l5.9-13.5L110.7,66.6z M104.4,79.7l-9.7-23l15.5,9.6L104.4,79.7z M104.2,79.8L88.7,53.2
			c0.1,0,0.1-0.1,0.1-0.1l5.5,3.4L104.2,79.8z M87.6,52l-1.2-0.7l1.9-8.7c0,0,0,0,0,0l-0.1,9.2C88,51.7,87.8,51.8,87.6,52z
			 M86.2,51.4L86,52l-14.1-2.6l6.1-2.8L86.2,51.4z M86,52.2l-0.1,0.5l-26.3,2.6c0,0,0-0.1,0-0.1l12-5.5L86,52.2z M59.5,55
			c-0.1-0.2-0.3-0.3-0.5-0.4c-0.1,0-0.2,0-0.3,0l-2-7.7l14.6,2.6L59.5,55z M58.5,54.7c0,0-0.1,0-0.1,0l-4.9-7.9
			c0.1-0.1,0.2-0.2,0.3-0.4l2.7,0.5L58.5,54.7z M53.8,46.2C53.8,46.2,53.8,46.2,53.8,46.2l2.4-0.3l0.2,0.8L53.8,46.2z M53.8,46
			c-0.1-0.3-0.3-0.5-0.6-0.6c-0.1,0-0.1,0-0.2,0l-0.5-13.1c0,0,0,0,0,0l3.6,13.4L53.8,46z M45.3,41l-2.9,3.9c-0.1,0-0.2-0.1-0.2-0.1
			c-0.2-0.1-0.5,0-0.7,0.2l-7.2-7.6l3.8-1.2L45.3,41z M34.1,37.2L24,26.7L37.9,36L34.1,37.2z M22.6,26.3L7.4,32.6l-3.6-7.8
			c0.2-0.1,0.3-0.3,0.4-0.5c0,0,0,0,0,0l18.4,1.8C22.6,26.2,22.6,26.3,22.6,26.3z M2.8,24.7l-14.6,15.6c-0.1-0.1-0.2-0.2-0.4-0.2
			c0,0-0.1,0-0.1,0l-0.5-9.6l15.5-5.9C2.7,24.6,2.7,24.6,2.8,24.7z M-12.5,40.1c-0.1,0-0.3,0.1-0.4,0.2c-0.1-0.2-0.3-0.3-0.5-0.4
			c-0.4-0.1-0.8,0.1-0.9,0.5L-29.1,37c0-0.1,0-0.2,0-0.3l16.1-6.2L-12.5,40.1z M-30.1,37.7C-30.1,37.7-30.1,37.7-30.1,37.7
			c0.3,0.1,0.5,0,0.7-0.1l11,12.2c0,0-0.1,0.1-0.1,0.1l-13.9-7L-30.1,37.7z M-17.2,49.7l5-6.1l0.4,5.4l-5.1,1
			C-17.1,49.9-17.1,49.8-17.2,49.7z M-12.1,43.3l1.7-2.1l22.2,2.8c0,0,0,0.1,0,0.1l-23.5,4.8L-12.1,43.3z M13.4,44.3
			C13.4,44.2,13.4,44.2,13.4,44.3l27.7,1.4c0,0.2,0.1,0.4,0.2,0.5L23.7,68.9c-0.1,0-0.1-0.1-0.2-0.1c-0.1,0-0.3,0-0.4,0L13,44.8
			C13.2,44.7,13.4,44.5,13.4,44.3z M102.7,81.4l0.1,0.3c-0.2,0.1-0.3,0.3-0.3,0.5c0,0,0,0.1,0,0.1l-19.6,0.2L102.7,81.4z M104,82.8
			l0.5,0.2l-3.4,14.7l2.2-14.6C103.6,83.2,103.9,83,104,82.8z M101,98.6l3.6-15.5l6.9,3.2l-10.3,12.4
			C101.1,98.7,101.1,98.6,101,98.6z M104.6,82.9l0.2-0.9c0.3,0,0.6-0.1,0.8-0.3l6.7,3.5l-0.7,0.9L104.6,82.9z M112.5,85.3l20.2,10.6
			l-20.9-9.7L112.5,85.3z M147.5,80.2l13.4,3.5c0,0.1,0,0.3,0.1,0.4l-10.6,5.8L147.5,80.2z M161,84.2c0.1,0.1,0.2,0.2,0.3,0.3
			l-6.2,17.2l-0.5,1.4c0,0,0,0,0,0c-0.1,0-0.2,0-0.3,0L150.4,90L161,84.2z M161.5,84.6C161.5,84.6,161.5,84.6,161.5,84.6
			c0.1,0,0.1,0,0.1,0l-2.9,7.7L161.5,84.6z M162.3,83.3l6-15.8c0,0,0,0,0,0c0.2,0.1,0.4,0,0.6-0.1l13.3,16.5l-19.8-0.2
			C162.5,83.5,162.4,83.4,162.3,83.3z M169.1,67.2C169.1,67.2,169.1,67.2,169.1,67.2l10.6,8.1l4.6,8.6l-1.8,0L169.1,67.2z M188,90.5
			l-1.9-3.6l3.9-2.1l-1.6,5.6C188.3,90.4,188.2,90.5,188,90.5z M186,86.7l-1.4-2.7l5.6,0l-0.1,0.5L186,86.7z M190.4,84.1L190.4,84.1
			c0.1,0.1,0.1,0.1,0.1,0.2l-0.2,0.1L190.4,84.1z M191.4,83.2c-0.2,0-0.4,0-0.5,0.1l-0.2-0.2l6.9-24.7L191.4,83.2z M190.8,83.5
			C190.7,83.5,190.7,83.5,190.8,83.5l-0.1-0.1l0-0.1L190.8,83.5z M190.6,83.6c0,0.1-0.1,0.1-0.1,0.2c0,0,0,0.1,0,0.1l0,0L190.6,83.6
			L190.6,83.6z M190.3,83.9l-5.8,0l-4.4-8.3l10.3,7.9L190.3,83.9z M184.4,84.1l1.5,2.8l-0.7,0.4l-2.6-3.2L184.4,84.1z M186,87
			l1.8,3.4l-2.5-3L186,87z M190.3,84.7l0.4-0.2c0.1,0.1,0.2,0.2,0.3,0.2l-2.2,5.3L190.3,84.7z M173.7,64l-4.5,2.2
			c-0.1-0.2-0.3-0.3-0.5-0.4c0,0,0,0-0.1,0l0.8-9.2c0.1,0,0.2,0,0.3,0L173.7,64z M140.1,50.1l-1.2-5.4c0.1,0,0.2-0.1,0.3-0.2
			l6.4,4.9L140.1,50.1z M88.1,42.5l-1.9,8.7l-8-4.7l9.4-4.3C87.7,42.4,87.9,42.5,88.1,42.5z M51.9,32.1l-6.5,8.8l-7.1-4.8l13.4-4.2
			C51.8,32,51.9,32,51.9,32.1z M-46,72.6c-0.1,0-0.1,0-0.2,0l-4.3-38.2c0.2,0,0.4-0.2,0.5-0.3l17.4,8.8L-46,72.6
			C-46,72.6-46,72.6-46,72.6z M191.9,83.5c-0.1-0.1-0.2-0.2-0.3-0.2l7.8-30.9c0.2,0,0.3,0,0.4-0.1l10.5,17.5L191.9,83.5z
			 M190.5,83.1l0,0.1l-10.6-8L174,64.1l1.3-0.6L190.5,83.1z M173.9,63.9l-3.8-7.1l5,6.5L173.9,63.9z M168.7,55.8
			c0,0.2,0,0.4,0.1,0.5l-7.1,4.9l-14.4-11.4c0,0,0-0.1,0.1-0.1L168.7,55.8z M145.8,49.3l-5.2-3.9l5.3,3.5c0,0.1-0.1,0.1-0.1,0.2
			C145.8,49.2,145.8,49.2,145.8,49.3z M138.4,44.7c0.1,0,0.2,0,0.3,0l1.2,5.4l-5.1,0.7l3.4-6.1C138.3,44.7,138.4,44.7,138.4,44.7z
			 M139.9,50.3l1,4.4l-9.2,9l-3.1-2l6-10.8L139.9,50.3z M128.6,61.7l-11.9-7.9c0-0.1,0.1-0.1,0.1-0.2c0-0.1,0-0.1,0-0.2l17.8-2.4
			L128.6,61.7z M115.6,54.1l-5.2,12l-15.8-9.8l-1.5-3.6l22.1,0.7C115.2,53.8,115.3,54,115.6,54.1z M94.3,56.1L89,52.8
			c0,0,0.1-0.1,0.1-0.1c0,0,0,0,0-0.1l3.8,0.1L94.3,56.1z M89,52.5c0-0.3-0.3-0.7-0.6-0.7c0,0-0.1,0-0.1,0l0.1-9.2
			c0.1,0,0.1,0,0.2,0l4.2,10L89,52.5z M87.6,42l-9.5,4.4l-4.6-2.7L87.6,42C87.6,42,87.6,42,87.6,42z M77.8,46.5l-6.2,2.9l-15-2.7
			l-0.2-0.9l16.8-2.1L77.8,46.5z M56.3,45.7l-3.6-13.4c0.1-0.1,0.3-0.1,0.4-0.3l19.8,11.6L56.3,45.7z M2.6,24.3l-15.4,5.9l-1.3-27.9
			c0.1,0,0.2-0.1,0.3-0.1L2.8,23.6c-0.1,0.1-0.2,0.2-0.2,0.4C2.6,24.1,2.6,24.2,2.6,24.3z M-14.4,2.4c0,0,0.1,0,0.1,0l1.3,27.9
			l-16.1,6.2c-0.1-0.1-0.2-0.2-0.3-0.3L-14.4,2.4C-14.5,2.4-14.5,2.4-14.4,2.4z M-51.3,34.1L-75.1,60c-0.1-0.1-0.2-0.1-0.3-0.1
			c-0.1,0-0.2,0-0.3,0l-3.6-18.5c0.3-0.1,0.5-0.3,0.6-0.6c0-0.1,0-0.2,0-0.3l27.3-6.6C-51.4,34-51.3,34.1-51.3,34.1z M-75,60.1
			l23.8-25.8c0.1,0.1,0.2,0.1,0.3,0.1c0.1,0,0.1,0,0.2,0l4.3,38.2c-0.2,0.1-0.4,0.2-0.5,0.4l-27.9-12.1c0,0,0,0,0-0.1
			C-74.7,60.5-74.8,60.3-75,60.1z M-45.8,72.7l13.3-29.7l13.9,7c0,0,0,0.1,0,0.1c-0.1,0.2,0,0.4,0.1,0.6l-27.2,22.1
			C-45.7,72.7-45.7,72.7-45.8,72.7z M-17,50.4c0-0.1,0-0.2,0-0.3l5.1-1l2.3,32.3L-17.5,51C-17.3,50.9-17.1,50.7-17,50.4z M-9.2,81.7
			c0,0-0.1,0-0.1,0l-2.3-32.6l23.6-4.8c0.1,0.3,0.3,0.5,0.6,0.5c0.1,0,0.3,0,0.4,0l10,24.1c-0.2,0.1-0.4,0.3-0.4,0.5
			c0,0.1,0,0.3,0,0.4L-8.7,82.1C-8.8,81.9-9,81.8-9.2,81.7z M80.4,82.7l22.2-0.2c0,0.3,0.3,0.6,0.6,0.7l-2.3,15.4
			c-0.2,0-0.5,0.1-0.6,0.2L80.2,83c0-0.1,0.1-0.2,0.1-0.3C80.4,82.8,80.4,82.7,80.4,82.7z M101.3,98.8l10.3-12.5l23.7,11.1
			c0,0,0,0,0,0.1c0,0,0,0.1,0,0.1l-33.8,1.6C101.5,99.1,101.4,98.9,101.3,98.8z M136.8,97.3l13.4-7.3l3.9,13
			c-0.2,0.1-0.3,0.2-0.4,0.4l-16.8-5.7c0,0,0,0,0,0C136.9,97.7,136.9,97.5,136.8,97.3z M162.5,83.9
			C162.5,83.9,162.5,83.9,162.5,83.9l19.9,0.1l2.6,3.3l-3.6,1.9L162.5,83.9z M185.2,87.5l2.6,3.2c-0.1,0.1-0.1,0.2-0.2,0.3l-5.9-1.6
			L185.2,87.5z M188.7,90.5l2.4-5.8c0,0,0,0,0.1,0c0.4,0.1,0.9-0.2,1-0.6c0,0,0-0.1,0-0.1l4,0l-7.2,6.5
			C188.8,90.6,188.7,90.6,188.7,90.5z M192.1,83.9c0-0.1,0-0.2-0.1-0.3l14.7-9.2l-10.5,9.5L192.1,83.9z M212.1,71.6l11.3-0.5l7,12.2
			c-0.1,0-0.1,0.1-0.2,0.2L212,71.9c0-0.1,0.1-0.1,0.1-0.2C212.1,71.7,212.1,71.6,212.1,71.6z M249.9,70.1l4.3,0.1L232.4,83
			L249.9,70.1z M250.1,69.9l1-0.8l7.3-1.6c0,0,0,0.1,0,0.1l-4,2.3L250.1,69.9z M258.5,67.9c0.1,0.1,0.3,0.3,0.5,0.3
			c0.4,0.1,0.7-0.1,0.9-0.4l5.8,2.4c0,0,0,0,0,0.1c0,0,0,0.1,0,0.1L254.8,70L258.5,67.9z M207.8,73.8l2.7-1.7l-13.7,11.8h-0.1
			L207.8,73.8z M265.6,70l-5.8-2.4c0,0,0-0.1,0-0.1c0.1-0.4-0.2-0.9-0.6-1c0,0,0,0-0.1,0l0.3-2.9c0.2,0,0.4-0.1,0.5-0.2l5.8,6.3
			C265.7,69.9,265.6,69.9,265.6,70z M258.8,63.2l-5.9,3.5L221,63.5l37.7-0.5C258.7,63.1,258.7,63.1,258.8,63.2z M218.4,63.8l-8.1,6
			l-10.5-17.5c0.1,0,0.1-0.1,0.2-0.2l18.3,11c0,0.1-0.1,0.1-0.1,0.2C218.3,63.4,218.3,63.7,218.4,63.8z M198.7,51.9l-23.4,11.4
			l-5.3-6.8c0.1-0.1,0.2-0.2,0.2-0.4c0-0.1,0-0.1,0-0.2L198.7,51.9C198.7,51.8,198.7,51.9,198.7,51.9z M147.4,49.5
			c0.1-0.4-0.2-0.8-0.6-0.9c-0.3-0.1-0.6,0.1-0.8,0.3l-6.6-4.5l0,0c0,0,0,0,0,0l28.4,11L147.4,49.5z M138.1,44.6l-3.5,6.2l-17.9,2.4
			c0,0,0,0,0,0l21.1-8.9C137.9,44.4,138,44.5,138.1,44.6z M115.2,53.3L93,52.6l-4.3-10.1c0.1-0.1,0.2-0.2,0.3-0.3l26.2,11
			C115.2,53.2,115.2,53.2,115.2,53.3C115.2,53.3,115.2,53.3,115.2,53.3z M87.5,41.8l-14.3,1.8l-20-11.7l34.3,9.8
			C87.5,41.7,87.5,41.7,87.5,41.8z M51.7,31.3l-27.5-5.1c0-0.4-0.2-0.7-0.6-0.8l4.2-26.4c0.2,0,0.3,0,0.4-0.1l23.7,32.1
			C51.8,31,51.7,31.2,51.7,31.3z M27.3-1.3L3.9,23.5c-0.1-0.1-0.2-0.1-0.3-0.1c-0.2-0.1-0.4,0-0.6,0.1L-13.7,2.2
			c0.1-0.1,0.2-0.2,0.2-0.4c0,0,0-0.1,0-0.1l40.6-3.3C27.1-1.6,27.2-1.4,27.3-1.3z M-14.7,2.3l-15,33.9c0,0,0,0,0,0
			c-0.2-0.1-0.5,0-0.7,0.2l-18.5-19.8c0.1-0.1,0.2-0.2,0.2-0.3c0-0.1,0-0.3,0-0.4L-15,2C-14.9,2.1-14.8,2.2-14.7,2.3z M-49.6,16.7
			C-49.6,16.7-49.5,16.7-49.6,16.7l-1.1,16.1c-0.4,0-0.7,0.2-0.8,0.6c0,0.1,0,0.2,0,0.3l-27.3,6.6c0-0.1,0-0.1-0.1-0.2L-50,16.5
			C-49.9,16.6-49.7,16.7-49.6,16.7z M-103,65.9l26.7-5c0.1,0.3,0.3,0.5,0.6,0.6c0,0,0,0,0.1,0l-1.6,23.1c-0.2,0-0.4,0.1-0.6,0.3
			l-25.2-18.4c0-0.1,0.1-0.1,0.1-0.2C-103,66.1-103,66-103,65.9z M-77.1,84.5C-77.1,84.5-77.1,84.5-77.1,84.5l1.6-23.1
			c0.3,0,0.5-0.2,0.7-0.4L-47,73.1c0,0,0,0,0,0.1c0,0.1,0,0.3,0,0.4l-29.6,11.4C-76.7,84.7-76.9,84.5-77.1,84.5z M-45.5,72.9
			l27.2-22.1c0.1,0.1,0.2,0.2,0.4,0.2c0.1,0,0.2,0,0.3,0l8,30.7c-0.2,0.1-0.4,0.2-0.5,0.5l-35.3-8.8C-45.4,73.2-45.4,73.1-45.5,72.9
			z M-8.6,82.3L22.5,70c0.1,0.2,0.3,0.4,0.5,0.4c0,0,0,0,0,0l-2.4,34.8c-0.2,0-0.4,0.1-0.5,0.2L-8.7,82.9c0-0.1,0.1-0.1,0.1-0.2
			C-8.6,82.5-8.6,82.4-8.6,82.3z M21,105.2C20.9,105.2,20.9,105.2,21,105.2l2.3-34.8c0.1,0,0.1,0,0.2,0l13.2,30.1
			c-0.2,0.1-0.3,0.3-0.4,0.5c0,0.1,0,0.2,0,0.3l-14.7,4.4C21.4,105.4,21.2,105.2,21,105.2z M37.7,100.6l20.5-20.9
			c0.1,0.1,0.2,0.1,0.3,0.2c0.1,0,0.2,0,0.3,0l7.7,35.2c-0.2,0.1-0.3,0.2-0.4,0.3l-28.1-14c0,0,0-0.1,0-0.1
			C37.9,101.1,37.8,100.8,37.7,100.6z M67.3,115.4c-0.1-0.1-0.2-0.2-0.3-0.3l12.4-31.8c0,0,0,0,0,0c0.3,0.1,0.6,0,0.8-0.2l19.9,15.8
			c0,0.1-0.1,0.2-0.1,0.3c0,0.2,0,0.3,0,0.4L67.3,115.4z M101.5,99.4l33.8-1.6c0,0.3,0.2,0.5,0.5,0.6l-4.8,18.3
			c-0.3-0.1-0.6,0.1-0.8,0.3l-28.7-17.3c0,0,0.1-0.1,0.1-0.1C101.5,99.5,101.5,99.5,101.5,99.4z M131.5,117.1
			c-0.1-0.1-0.2-0.2-0.4-0.3l4.8-18.3c0.4,0.1,0.7-0.1,0.9-0.5l16.8,5.7c0,0,0,0,0,0c0,0.2,0,0.4,0.1,0.5L131.5,117.1z M181.5,89.4
			l6,1.7c0,0.1,0,0.2,0,0.3l-31.8,11.8L181.5,89.4z M196.4,84.1h0.1l-2.6,2.2L196.4,84.1z M210.8,72.1c0.1,0.1,0.2,0.2,0.4,0.2
			c0.3,0.1,0.6-0.1,0.8-0.3l18.2,11.6c0,0.1-0.1,0.1-0.1,0.2c0,0,0,0.1,0,0.1L197,83.9L210.8,72.1z M254.5,70.2l11,0.3
			c0,0,0,0.1,0,0.1l-33.6,12.9L254.5,70.2z"/>
		<path id="XMLID_2799_" class="st1" d="M230,65.8c0.3,0.1,0.5,0,0.7-0.2l5.8,6.3c-0.1,0.1-0.2,0.2-0.2,0.4c-0.1,0.4,0.2,0.9,0.6,1
			c0.4,0.1,0.9-0.2,1-0.6c0,0,0-0.1,0-0.1l38.8-0.5c0,0.3,0.3,0.6,0.6,0.7c0.3,0.1,0.6-0.1,0.8-0.3l18.3,11c0,0.1-0.1,0.1-0.1,0.2
			c-0.1,0.4,0.2,0.9,0.6,1c0.4,0.1,0.9-0.2,1-0.6c0-0.1,0-0.1,0-0.2l28.4-4.1c0.1,0.3,0.3,0.5,0.6,0.6c0.4,0.1,0.7-0.1,0.9-0.4
			l29.4,11.4c0,0,0,0,0,0c-0.1,0.4,0.2,0.9,0.6,1c0.4,0.1,0.9-0.2,1-0.6c0-0.1,0-0.3,0-0.4l21.1-8.9c0.1,0.2,0.3,0.4,0.5,0.4
			c0.4,0.1,0.7-0.1,0.9-0.4l26.2,11c0,0,0,0,0,0.1c-0.1,0.4,0.2,0.9,0.6,1c0.4,0.1,0.8-0.1,0.9-0.5l34.3,9.8
			c-0.1,0.4,0.2,0.8,0.6,0.9c0.2,0,0.4,0,0.6-0.1l23.7,32.1c-0.1,0.1-0.2,0.2-0.2,0.4c-0.1,0.4,0.2,0.9,0.6,1c0.4,0.1,0.9-0.2,1-0.6
			c0,0,0-0.1,0-0.1l40.6-3.3c0.1,0.3,0.3,0.5,0.6,0.6c0.4,0.1,0.9-0.2,1-0.6c0-0.1,0-0.3,0-0.4l33.7-13.7c0.1,0.2,0.3,0.3,0.5,0.4
			c0.4,0.1,0.9-0.2,1-0.6c0.1-0.2,0-0.4-0.1-0.6l28.9-23.7c0.1,0.1,0.2,0.2,0.4,0.2c0.4,0.1,0.9-0.2,1-0.6c0-0.1,0-0.1,0-0.2l36.8-6
			c0.1,0.3,0.3,0.5,0.6,0.6c0.4,0.1,0.9-0.2,1-0.6c0.1-0.4-0.2-0.9-0.6-1c-0.2,0-0.4,0-0.6,0.1L600.8,70c0.1-0.1,0.2-0.2,0.3-0.4
			c0.1-0.4-0.2-0.9-0.6-1c-0.3-0.1-0.6,0-0.8,0.3l-25.2-18.4c0-0.1,0.1-0.1,0.1-0.2c0.1-0.4-0.2-0.9-0.6-1c-0.4-0.1-0.9,0.2-1,0.6
			c0,0.1,0,0.3,0,0.4l-29.6,11.4c-0.1-0.2-0.3-0.4-0.5-0.4c-0.4-0.1-0.8,0.1-0.9,0.5l-35.3-8.8c0-0.4-0.2-0.8-0.6-0.9
			c-0.3-0.1-0.6,0-0.7,0.2l-28.9-22.5c0-0.1,0.1-0.1,0.1-0.2c0.1-0.4-0.2-0.9-0.6-1c-0.4-0.1-0.9,0.2-1,0.6c0,0.1,0,0.2,0,0.3
			l-14.7,4.4c-0.1-0.2-0.3-0.4-0.6-0.5c-0.3-0.1-0.7,0.1-0.9,0.4l-28.1-14c0,0,0-0.1,0-0.1c0.1-0.4-0.2-0.9-0.6-1
			c-0.4-0.1-0.9,0.2-1,0.6c0,0.2,0,0.3,0,0.4l-32.7,15.8c-0.1-0.2-0.3-0.3-0.5-0.4c-0.3-0.1-0.6,0.1-0.8,0.3l-28.7-17.3
			c0,0,0.1-0.1,0.1-0.1c0.1-0.4-0.2-0.9-0.6-1c-0.4-0.1-0.9,0.2-1,0.6c0,0.2,0,0.4,0.1,0.5L342.7,31c-0.1-0.2-0.3-0.3-0.5-0.3
			c-0.4-0.1-0.9,0.2-1,0.6c0,0.1,0,0.3,0,0.4l-32.4,12.1c-0.1-0.2-0.3-0.4-0.5-0.4c-0.4-0.1-0.9,0.2-1,0.6c-0.1,0.2,0,0.5,0.1,0.6
			l-7.8,6.7l-33.3,0.1c0-0.3-0.3-0.6-0.6-0.7c-0.4-0.1-0.9,0.2-1,0.6c0,0.1,0,0.3,0,0.4l-34,13c-0.1-0.2-0.3-0.4-0.5-0.4
			c-0.4-0.1-0.9,0.2-1,0.6C229.3,65.2,229.6,65.7,230,65.8z M613.6,88.5l-36.8,6c0-0.1-0.1-0.2-0.1-0.3L599.8,70
			c0.1,0.1,0.2,0.1,0.3,0.1c0.2,0,0.4,0,0.6-0.1l13.1,17.8c-0.1,0.1-0.2,0.2-0.3,0.4C613.6,88.3,613.6,88.4,613.6,88.5z M341.4,32
			c0.1,0.1,0.2,0.2,0.3,0.2l-7,18.6c-0.3,0-0.5,0.2-0.6,0.5L315.3,46L341.4,32z M429.7,20.3c0.1,0,0.2,0,0.3,0l7.7,35.2
			c-0.2,0.1-0.4,0.3-0.5,0.5l-19.4-3.3c0-0.3-0.1-0.6-0.4-0.8L429.7,20.3C429.7,20.3,429.7,20.3,429.7,20.3z M459.3,35
			c0.1,0,0.3,0,0.4,0l13.2,30.1c-0.2,0.1-0.3,0.2-0.3,0.4l-33.9-9.1c0-0.2,0-0.4-0.2-0.6L459,34.8C459,34.9,459.2,35,459.3,35z
			 M599.7,69.9l-23.2,24.2c-0.1-0.1-0.2-0.1-0.3-0.1c-0.1,0-0.2,0-0.3,0l-3.6-18.5c0.3-0.1,0.5-0.3,0.6-0.6c0-0.1,0-0.2,0-0.2
			l26.7-5C599.6,69.7,599.6,69.8,599.7,69.9z M545.4,118.8L527,99c0.1-0.1,0.2-0.2,0.2-0.3l19.2,3c0,0.4,0.2,0.8,0.6,0.8
			c0,0,0,0,0.1,0l-1.2,16.1C545.7,118.7,545.6,118.7,545.4,118.8z M468.8,136.4l4.2-26.4c0.4,0,0.7-0.2,0.8-0.6c0,0,0,0,0,0
			l18.4,1.8c0,0.2,0.1,0.4,0.2,0.5l-23.4,24.8C469,136.5,468.9,136.4,468.8,136.4z M444.8,103.9c0-0.1,0-0.1,0-0.2l13.6-4.3l14,9.5
			c0,0,0,0.1-0.1,0.1L444.8,103.9z M297.7,83.3c-0.1-0.1-0.2-0.2-0.4-0.3l8.6-30.6l15.2,19.5L297.7,83.3z M276.9,71.3
			c-0.1,0.1-0.2,0.2-0.3,0.4L250,65.5c0,0,0,0,0,0l23-1L276.9,71.3z M250,65.3c0-0.1-0.1-0.2-0.1-0.3l15.2-13
			c0.1,0.1,0.2,0.2,0.4,0.2c0.2,0,0.4,0,0.5-0.1l7,12.1L250,65.3z M249.7,64.9c-0.1-0.1-0.2-0.2-0.4-0.2c-0.4-0.1-0.9,0.2-1,0.6
			c0,0,0,0.1,0,0.1l-1.5,0l16.9-12.4L249.7,64.9z M248.4,65.5C248.4,65.5,248.4,65.5,248.4,65.5l-2.5,0.6l0.9-0.7L248.4,65.5z
			 M284.6,64.4c0.1,0.1,0.2,0.1,0.3,0.2c0.1,0,0.2,0,0.3,0l-6.3,5.7L284.6,64.4z M285.9,64C285.9,64,285.9,64,285.9,64
			c0.1-0.2,0-0.4-0.1-0.6l2.2-1.4L285.9,64z M284.6,64.4l-6.7,6.9c-0.1-0.1-0.2-0.1-0.3-0.2c-0.2,0-0.4,0-0.5,0.1l-3.9-6.7l11.2-0.5
			C284.4,64.1,284.5,64.3,284.6,64.4z M238.2,67.9l7-1.5l-2.8,2L238.2,67.9C238.2,67.9,238.2,67.9,238.2,67.9z M238.2,68.2
			C238.2,68.2,238.2,68.2,238.2,68.2l4,0.4l-4.6,3.4c-0.1-0.1-0.2-0.2-0.4-0.2c0,0,0,0-0.1,0l0.3-2.9
			C237.7,68.8,238.1,68.5,238.2,68.2z M242.5,68.6l1,0.1l-5.3,3.1L242.5,68.6z M242.7,68.4l2.9-2.2l2.8-0.6c0,0,0,0.1,0,0.1
			l-4.7,2.7L242.7,68.4z M248.5,65.9c0.1,0.2,0.3,0.3,0.5,0.3c0.4,0.1,0.8-0.1,0.9-0.5l26,6l-32-3.2L248.5,65.9z M285.6,64.7
			l0.4,0.7l-7.1,5.2L285.6,64.7z M285.7,64.6l3.4-3.1l14.3-9l-17.3,12.8L285.7,64.6z M359.8,38.2c0.1,0.1,0.2,0.2,0.3,0.3l-6.5,17.9
			l-4.3-1.1l-2.9-9.8L359.8,38.2z M437.1,56.2c0,0.2,0,0.4,0.1,0.5L427,65.8l-9.6-12.5c0.1-0.1,0.2-0.2,0.2-0.4L437.1,56.2z
			 M472.5,65.6c0,0.1,0,0.2,0,0.3l-24.8,9.9l-9.4-18.9c0.1-0.1,0.2-0.2,0.3-0.4L472.5,65.6z M546.4,101.5
			C546.4,101.5,546.4,101.5,546.4,101.5l-19.3-3c0-0.3-0.1-0.6-0.4-0.7l2.3-5.1L546.4,101.5z M444.2,103c-0.1,0-0.1,0-0.2,0
			L443.5,90c0.2,0,0.4-0.1,0.5-0.3l6.9,4.7l-6.5,8.8C444.4,103.1,444.3,103.1,444.2,103z M426.9,66l-15.7,14.1l5.7-26.5
			c0.2,0,0.3,0,0.5-0.1L426.9,66z M453.9,89.3l-6-3.5l3.3-2.6l2.9,5.9C454,89.2,453.9,89.2,453.9,89.3z M453.8,89.4
			c0,0.1-0.1,0.1-0.1,0.2c0,0,0,0,0,0l-9.5-0.5c0-0.1,0-0.2-0.1-0.4l3.6-2.9L453.8,89.4z M444,88.6c-0.1-0.1-0.2-0.2-0.4-0.2
			c-0.1,0-0.2,0-0.2,0l-0.9-5.6l5.1,3L444,88.6z M438.5,79.7l3.1-1.2l0.7,4l-3.8-2.2c0-0.1,0.1-0.1,0.1-0.2
			C438.5,80,438.5,79.9,438.5,79.7z M438.4,79.6c-0.1-0.2-0.3-0.3-0.5-0.4c0,0-0.1,0-0.1,0l0.2-22l3.6,21.1L438.4,79.6z M438.3,80.4
			l3.9,2.3l1,5.7c-0.1,0-0.1,0-0.2,0.1l-4.9-7.9C438.2,80.5,438.3,80.5,438.3,80.4z M455.3,89.9l27.7,1.4c0,0,0,0.1,0,0.1l-20.6,6.5
			l-7.3-7.6C455.2,90.2,455.3,90.1,455.3,89.9C455.3,89.9,455.3,89.9,455.3,89.9z M454.7,89c-0.2,0-0.3,0-0.4,0l-2.9-5.9l21.4-16.8
			c0,0,0,0,0,0L455,89.1C454.9,89,454.8,89,454.7,89z M472.6,66.2l-21.3,16.8l-3.4-6.9L472.6,66.2C472.6,66.1,472.6,66.2,472.6,66.2
			z M451.1,83.1l-3.4,2.7l-5.3-3.1l-0.7-4.2l5.9-2.4L451.1,83.1z M441.7,78.2L438.1,57c0,0,0,0,0,0l9.4,18.9L441.7,78.2z M437.7,57
			c0,0,0.1,0,0.1,0l-0.2,22.1c-0.1,0-0.2,0-0.3,0.1L427.2,66l10.2-9.1C437.5,56.9,437.6,57,437.7,57z M437.1,79.4
			c-0.1,0.1-0.2,0.2-0.2,0.4c0,0.1,0,0.1,0,0.2l-26.2,2.6l0.5-2.1L427,66.1L437.1,79.4z M410.9,80.3l-2.1,1.9
			c-0.1-0.1-0.1-0.1-0.2-0.1l7.7-26.7L410.9,80.3z M409,82.9C409,82.9,409,82.8,409,82.9l1.3-0.2l-0.1,0.4L409,82.9z M409,82.7
			c0-0.1-0.1-0.2-0.1-0.3l1.9-1.7l-0.4,1.9L409,82.7z M406.8,80.1l-14.5-24.9l0.5-1.1l0.9,0L406.8,80.1z M349.5,84.9l-7-16l8.3-5.7
			c0.1,0.1,0.2,0.2,0.4,0.3c0,0,0,0,0.1,0l-1.3,21.8L349.5,84.9z M328.7,69.1c0-0.1,0.1-0.1,0.1-0.2c0-0.1,0-0.2,0-0.3l1.3-0.3
			l-0.4,1.6L328.7,69.1z M335,52.3l5.7,13L330.3,68l4.4-15.7C334.8,52.4,334.9,52.4,335,52.3z M350.7,63l-8.2,5.7l-1.4-3.3l9.6-2.5
			C350.6,63,350.6,63,350.7,63z M350.7,62.3c0,0.1-0.1,0.1-0.1,0.2c0,0.1,0,0.2,0,0.3l-9.7,2.5l-5.7-13c0.1,0,0.2-0.1,0.2-0.2
			L350.7,62.3z M330.1,68.1l-1.4,0.4c-0.1-0.2-0.2-0.3-0.4-0.4l0.5-1.4l5.4-13.7L330.1,68.1z M330.3,68.2l10.5-2.7l1.5,3.4l-7.3,5
			l-5.2-3.9L330.3,68.2z M342.3,69l6.9,15.7L335.1,74L342.3,69z M365.8,59.7l7.9,2c0,0,0,0,0,0.1l-21.3,0.8L365.8,59.7z M390.8,54.4
			L390.8,54.4l-10.1,4.5l9.2-4.3L390.8,54.4z M392,54.8c0.1-0.1,0.3-0.3,0.3-0.5c0-0.1,0-0.1,0-0.1l0.2,0l-0.4,0.9L392,54.8z
			 M392.6,54l-0.3,0c0-0.1-0.1-0.2-0.1-0.3l0.3-0.2c0.1,0.1,0.1,0.1,0.2,0.2L392.6,54z M392.5,53.4
			C392.5,53.4,392.5,53.4,392.5,53.4l-0.3,0.3c0,0-0.1-0.1-0.1-0.1L392.5,53.4z M390.8,54.2L390.8,54.2L390.8,54.2
			C390.8,54.2,390.8,54.2,390.8,54.2z M389.3,54.7l-14.2,6.7c0-0.1-0.1-0.1-0.1-0.1l3.5-4.3L389.3,54.7z M374.9,61.2
			c-0.1-0.1-0.2-0.1-0.3-0.1c-0.2,0-0.4,0-0.5,0.1l-1.6-2.8l5.8-1.2L374.9,61.2z M374,61.2c-0.1,0.1-0.2,0.2-0.3,0.3l-7.5-1.9
			l6.1-1.3L374,61.2z M375.1,62.2c0,0,0.1-0.1,0.1-0.1c0-0.2,0-0.3,0-0.4l15.7-7c0.1,0.1,0.2,0.2,0.3,0.3l-5.5,13.9L375.1,62.2z
			 M392.8,54l0.1-0.3c0,0,0,0,0.1,0c0.2,0,0.3,0,0.5,0l0.1,0.2L392.8,54z M392.4,53.3l-0.4,0.2c-0.1,0-0.1-0.1-0.2-0.1l0.2-0.8
			l0.4,0.2c0,0,0,0,0,0.1C392.3,53,392.4,53.1,392.4,53.3z M390.8,54l-0.6,0.3l-11.4,2.4l5.3-6.5l6.8,3.6
			C390.8,53.9,390.8,53.9,390.8,54C390.8,54,390.8,54,390.8,54z M365.3,59.6l-13.2,2.8c-0.1-0.2-0.2-0.4-0.4-0.4l2-5.4L365.3,59.6z
			 M351.6,61.9C351.6,61.9,351.5,61.9,351.6,61.9c-0.1,0-0.2,0-0.3,0l-1.9-6.4l4.2,1.1L351.6,61.9z M351,61.9
			c-0.1,0.1-0.2,0.1-0.3,0.2L335.5,52c0,0,0-0.1,0-0.1l13.6,3.5L351,61.9z M328.6,69.2L328.6,69.2l1,0.8l-2.4,8.6c0,0,0,0,0,0
			l0.8-9.2C328.2,69.5,328.4,69.4,328.6,69.2z M380.7,81.1c-0.1,0-0.2,0-0.3,0l-5.6-18.6c0.1-0.1,0.2-0.1,0.3-0.2l10.6,6.6
			L380.7,81.1C380.7,81.1,380.7,81.1,380.7,81.1z M409,83.1C409,83.1,409,83.1,409,83.1l1.3,0.2l-0.1,0.5L409,83.1z M444.2,89.6
			c0-0.1,0.1-0.1,0.1-0.2c0,0,0,0,0,0l9.5,0.5c0,0.2,0.1,0.4,0.3,0.5l-2.9,3.9L444.2,89.6z M462.6,98.1l20.5-6.5
			c0.1,0.1,0.1,0.2,0.2,0.3l-9.9,16.6c-0.1,0-0.1-0.1-0.2-0.1c-0.2-0.1-0.5,0-0.7,0.2L462.6,98.1z M473.6,108.6l9.9-16.6
			c0.1,0,0.1,0.1,0.2,0.1c0.2,0,0.3,0,0.5,0l4.9,10.5l-15.2,6.3C473.8,108.7,473.7,108.6,473.6,108.6z M493.3,110.4
			c-0.2,0-0.3,0-0.4,0l-3.6-7.8l16.2-6.7l-11.8,14.6C493.5,110.5,493.4,110.5,493.3,110.4z M505.7,95.8l2.4-1c0,0,0,0.1,0.1,0.1
			c0,0,0,0,0,0l-13.6,14.5L505.7,95.8z M509.2,93.7c-0.1,0-0.1-0.1-0.2-0.1c0,0-0.1,0-0.1,0l-0.1-1.6l5-6.1L509.2,93.7z M508.7,93.6
			c-0.3,0.1-0.6,0.3-0.6,0.6c0,0,0,0,0,0l-0.9-0.1l1.5-1.8L508.7,93.6z M508,94.4c0,0.1,0,0.2,0,0.2l-2.1,0.9l1-1.2L508,94.4z
			 M525.8,97.9c-0.1,0.1-0.1,0.2-0.2,0.3l-14.7-3.4c0.1-0.4-0.2-0.8-0.6-0.9c-0.2-0.1-0.5,0-0.7,0.2c0,0,0-0.1-0.1-0.1
			c-0.1-0.1-0.1-0.2-0.2-0.3l4.6-7.9c0.1,0,0.1,0.1,0.2,0.1c0.2,0.1,0.5,0,0.7-0.2L525.8,97.9z M506.8,94.2l-1.1,1.4l-16.5,6.9
			L484.3,92c0.2-0.1,0.3-0.3,0.4-0.5c0,0,0,0,0,0L506.8,94.2z M416.6,53.5L408.4,82c-0.1,0-0.3,0-0.4,0l-14.1-28l22.3-1.2
			C416.2,53.1,416.4,53.4,416.6,53.5z M378.5,56.8l-6.1,1.3l-11.5-19.7c0.1-0.1,0.1-0.1,0.2-0.2l22.8,12L378.5,56.8z M360.2,38.5
			c0.2,0,0.4,0,0.5-0.1l11.4,19.7l-6.4,1.4l-12.1-3.1L360.2,38.5C360.2,38.5,360.2,38.5,360.2,38.5z M334.4,52.3l-2.7,6.8l2.6-6.9
			C334.4,52.3,334.4,52.3,334.4,52.3z M327.3,68.3c0,0.1-0.1,0.1-0.1,0.2c0,0.2,0,0.3,0,0.4l-4.5,2.2L317,60.4L327.3,68.3z
			 M327.3,78.7l2.4-8.6l5,3.9l-7,4.9C327.6,78.8,327.5,78.8,327.3,78.7z M349.4,85l0.1,0.3c-0.1,0-0.1,0.1-0.2,0.1L335,74.1
			L349.4,85z M350.7,85.8L350.7,85.8c-0.1-0.1-0.2-0.2-0.2-0.3l4.9-4.8l1,4.3L350.7,85.8z M350.4,85.4c-0.1-0.1-0.2-0.1-0.3-0.2
			c0,0,0,0-0.1,0l1.4-21.8c0,0,0,0,0.1,0l3.9,17.1L350.4,85.4z M351.6,63.4c0.1,0,0.3-0.1,0.4-0.2l12.6,8.3l-9,8.9L351.6,63.4z
			 M352.1,63c0-0.1,0.1-0.1,0.1-0.2c0,0,0-0.1,0-0.1l21.5-0.8c0,0.1,0.1,0.3,0.2,0.4l-9.1,9L352.1,63z M373.9,62.5
			C373.9,62.5,373.9,62.5,373.9,62.5l-6.1,11l-3-2L373.9,62.5z M374.1,62.6c0,0,0.1,0,0.1,0.1c0.1,0,0.2,0,0.3,0l5.6,18.6
			c-0.1,0-0.2,0.1-0.3,0.2L368,73.5L374.1,62.6z M385.8,69l0.3,0.2l-3.5,8.1L385.8,69z M385.8,68.8l5.5-13.9c0,0,0,0,0,0
			c0.1,0,0.3,0,0.4,0l0.2,0.5L386.1,69L385.8,68.8z M392.1,55.7l9.7,23L386.2,69L392.1,55.7z M392.3,55.5l15.5,26.7
			c-0.1,0-0.1,0.1-0.1,0.1l-5.5-3.4L392.3,55.5z M408.9,83.3l1.2,0.7l-1.9,8.7c0,0,0,0,0,0l0.1-9.2
			C408.5,83.6,408.7,83.5,408.9,83.3z M410.3,83.9l0.1-0.6l14.1,2.6l-6.1,2.8L410.3,83.9z M410.5,83.1l0.1-0.5l26.3-2.6
			c0,0,0,0.1,0,0.1l-12,5.5L410.5,83.1z M437,80.4c0.1,0.2,0.3,0.3,0.5,0.4c0.1,0,0.2,0,0.3,0l2,7.7l-14.6-2.6L437,80.4z M438,80.7
			c0,0,0.1,0,0.1,0l4.9,7.9c-0.1,0.1-0.2,0.2-0.3,0.4l-2.7-0.5L438,80.7z M442.7,89.1C442.7,89.2,442.7,89.2,442.7,89.1l-2.4,0.3
			l-0.2-0.8L442.7,89.1z M442.7,89.4c0.1,0.3,0.3,0.5,0.6,0.6c0.1,0,0.1,0,0.2,0l0.5,13.1c0,0,0,0,0,0l-3.6-13.4L442.7,89.4z
			 M451.2,94.3l2.9-3.9c0.1,0,0.2,0.1,0.2,0.1c0.2,0.1,0.5,0,0.7-0.2l7.2,7.6l-3.8,1.2L451.2,94.3z M462.4,98.1l10.1,10.6l-13.9-9.4
			L462.4,98.1z M473.9,109l15.2-6.3l3.6,7.8c-0.2,0.1-0.3,0.3-0.4,0.5c0,0,0,0,0,0l-18.4-1.8C473.9,109.2,473.9,109.1,473.9,109z
			 M493.7,110.7L508.3,95c0.1,0.1,0.2,0.2,0.4,0.2c0,0,0.1,0,0.1,0l0.5,9.6l-15.5,5.9C493.8,110.8,493.8,110.7,493.7,110.7z
			 M509,95.3c0.1,0,0.3-0.1,0.4-0.2c0.1,0.2,0.3,0.3,0.5,0.4c0.4,0.1,0.8-0.2,0.9-0.5l14.7,3.4c0,0.1,0,0.2,0,0.3l-16.1,6.2
			L509,95.3z M526.6,97.7C526.6,97.7,526.6,97.7,526.6,97.7c-0.3-0.1-0.5,0-0.7,0.1l-11-12.2c0,0,0.1-0.1,0.1-0.1l13.9,7L526.6,97.7
			z M513.7,85.7l-5,6.1l-0.4-5.4l5.1-1C513.6,85.5,513.6,85.6,513.7,85.7z M508.6,92l-1.7,2.1l-22.2-2.8c0,0,0-0.1,0-0.1l23.5-4.8
			L508.6,92z M483.1,91.1C483.1,91.1,483.1,91.1,483.1,91.1l-27.7-1.4c0-0.2-0.1-0.4-0.2-0.5l17.8-22.8c0.1,0,0.2,0.1,0.2,0.1
			c0.1,0,0.3,0,0.4,0l10,24.1C483.3,90.7,483.1,90.9,483.1,91.1z M393.8,53.9l-0.1-0.3c0.2-0.1,0.3-0.3,0.3-0.5c0,0,0-0.1,0-0.1
			l19.6-0.2L393.8,53.9z M392.5,52.6l-0.5-0.2l3.4-14.7l-2.2,14.6C392.9,52.2,392.6,52.3,392.5,52.6z M395.5,36.7l-3.6,15.5
			l-6.9-3.2l10.3-12.4C395.4,36.7,395.4,36.7,395.5,36.7z M391.9,52.5l-0.2,0.9c-0.3,0-0.6,0.1-0.8,0.3l-6.7-3.5l0.7-0.9L391.9,52.5
			z M384,50.1l-20.2-10.6l20.9,9.7L384,50.1z M349,55.1l-13.4-3.5c0-0.1,0-0.3-0.1-0.4l10.6-5.8L349,55.1z M335.5,51.1
			c-0.1-0.1-0.2-0.2-0.3-0.3l6.2-17.2l0.5-1.4c0,0,0,0,0,0c0.1,0,0.2,0,0.3,0l3.9,13.1L335.5,51.1z M335,50.8
			C335,50.8,335,50.8,335,50.8c-0.1,0-0.1,0-0.1,0l2.9-7.7L335,50.8z M334.2,52.1l-6,15.8c0,0,0,0,0,0c-0.2-0.1-0.4,0-0.6,0.1
			l-13.3-16.5l19.8,0.2C334,51.8,334.1,52,334.2,52.1z M327.4,68.1C327.4,68.1,327.4,68.1,327.4,68.1l-10.6-8.1l-4.6-8.6l1.8,0
			L327.4,68.1z M308.5,44.8l1.9,3.6l-3.9,2.1l1.6-5.6C308.2,44.9,308.3,44.9,308.5,44.8z M310.5,48.6l1.4,2.7l-5.6,0l0.1-0.5
			L310.5,48.6z M306.1,51.2L306.1,51.2c-0.1-0.1-0.1-0.1-0.1-0.2l0.2-0.1L306.1,51.2z M305.1,52.1c0.2,0,0.4,0,0.5-0.1l0.2,0.2
			l-6.9,24.7L305.1,52.1z M305.7,51.9C305.8,51.9,305.8,51.9,305.7,51.9l0.1,0.1l0,0.1L305.7,51.9z M305.9,51.7
			c0-0.1,0.1-0.1,0.1-0.2c0,0,0-0.1,0-0.1h0L305.9,51.7L305.9,51.7z M306.2,51.4l5.8,0l4.4,8.3l-10.3-7.9L306.2,51.4z M312.1,51.3
			l-1.5-2.8l0.7-0.4l2.6,3.2L312.1,51.3z M310.5,48.3l-1.8-3.4l2.5,3L310.5,48.3z M306.2,50.6l-0.4,0.2c-0.1-0.1-0.2-0.2-0.3-0.2
			l2.2-5.3L306.2,50.6z M322.8,71.3l4.5-2.2c0.1,0.2,0.3,0.3,0.5,0.4c0,0,0,0,0.1,0l-0.8,9.2c-0.1,0-0.2,0-0.3,0.1L322.8,71.3z
			 M356.4,85.3l1.2,5.4c-0.1,0-0.2,0.1-0.3,0.2l-6.4-4.9L356.4,85.3z M408.4,92.8l1.9-8.7l8,4.7l-9.4,4.3
			C408.8,93,408.6,92.9,408.4,92.8z M444.6,103.2l6.5-8.8l7.1,4.8l-13.4,4.2C444.7,103.4,444.6,103.3,444.6,103.2z M542.5,62.8
			c0.1,0,0.1,0,0.2,0L547,101c-0.2,0-0.4,0.2-0.5,0.3l-17.4-8.8L542.5,62.8C542.5,62.8,542.5,62.8,542.5,62.8z M304.6,51.9
			c0.1,0.1,0.2,0.2,0.3,0.2l-7.8,30.9c-0.2,0-0.3,0-0.4,0.1l-10.5-17.5L304.6,51.9z M306,52.2l0-0.1l10.6,8l5.9,11.1l-1.3,0.6
			L306,52.2z M322.6,71.4l3.8,7.1l-5-6.5L322.6,71.4z M327.8,79.6c0-0.2,0-0.4-0.1-0.5l7.1-4.9l14.4,11.4c0,0,0,0.1-0.1,0.1
			L327.8,79.6z M350.7,86.1l5.2,3.9l-5.3-3.5c0-0.1,0.1-0.1,0.1-0.2C350.7,86.2,350.7,86.1,350.7,86.1z M358.1,90.6
			c-0.1,0-0.2,0-0.3,0l-1.2-5.4l5.1-0.7l-3.4,6.1C358.2,90.7,358.1,90.6,358.1,90.6z M356.6,85.1l-1-4.4l9.2-9l3.1,2l-6,10.8
			L356.6,85.1z M367.9,73.7l11.9,7.9c0,0.1-0.1,0.1-0.1,0.2c0,0.1,0,0.1,0,0.2L362,84.3L367.9,73.7z M380.9,81.2l5.2-12l15.8,9.8
			l1.5,3.6l-22.1-0.7C381.3,81.6,381.2,81.4,380.9,81.2z M402.2,79.2l5.3,3.3c0,0-0.1,0.1-0.1,0.1c0,0,0,0,0,0.1l-3.8-0.1
			L402.2,79.2z M407.5,82.9c0,0.3,0.3,0.7,0.6,0.7c0,0,0.1,0,0.1,0l-0.1,9.2c-0.1,0-0.1,0-0.2,0l-4.2-10L407.5,82.9z M408.9,93.3
			l9.5-4.4l4.6,2.7L408.9,93.3C408.9,93.4,408.9,93.3,408.9,93.3z M418.7,88.8l6.2-2.9l15,2.7l0.2,0.9l-16.8,2.1L418.7,88.8z
			 M440.2,89.7l3.6,13.4c-0.1,0.1-0.3,0.1-0.4,0.3l-19.8-11.6L440.2,89.7z M493.9,111l15.4-5.9l1.3,27.9c-0.1,0-0.2,0.1-0.3,0.1
			l-16.7-21.3c0.1-0.1,0.2-0.2,0.2-0.4C493.9,111.3,493.9,111.1,493.9,111z M510.9,133c0,0-0.1,0-0.1,0l-1.3-27.9l16.1-6.2
			c0.1,0.1,0.2,0.2,0.3,0.3L510.9,133C511,133,511,133,510.9,133z M547.8,101.2l23.8-25.8c0.1,0.1,0.2,0.1,0.3,0.1
			c0.1,0,0.2,0,0.3,0l3.6,18.5c-0.3,0.1-0.5,0.3-0.6,0.6c0,0.1,0,0.2,0,0.3l-27.3,6.6C547.9,101.4,547.8,101.3,547.8,101.2z
			 M571.5,75.2l-23.8,25.8c-0.1-0.1-0.2-0.1-0.3-0.1c-0.1,0-0.1,0-0.2,0l-4.3-38.2c0.2-0.1,0.4-0.2,0.5-0.4l27.9,12.1c0,0,0,0,0,0.1
			C571.2,74.8,571.3,75.1,571.5,75.2z M542.3,62.7L529,92.4l-13.9-7c0,0,0-0.1,0-0.1c0.1-0.2,0-0.4-0.1-0.6l27.2-22.1
			C542.2,62.6,542.2,62.7,542.3,62.7z M513.5,84.9c0,0.1,0,0.2,0,0.3l-5.1,1l-2.3-32.3l7.9,30.5C513.8,84.5,513.6,84.7,513.5,84.9z
			 M505.7,53.6c0,0,0.1,0,0.1,0l2.3,32.6L484.6,91c-0.1-0.3-0.3-0.5-0.6-0.5c-0.1,0-0.3,0-0.4,0l-10-24.1c0.2-0.1,0.4-0.3,0.4-0.5
			c0-0.1,0-0.3,0-0.4l31.2-12.3C505.3,53.4,505.5,53.6,505.7,53.6z M416.1,52.7L394,52.9c0-0.3-0.3-0.6-0.6-0.7l2.3-15.4
			c0.2,0,0.5-0.1,0.6-0.2l19.9,15.8c0,0.1-0.1,0.2-0.1,0.3C416.1,52.6,416.1,52.6,416.1,52.7z M395.2,36.5L384.9,49L361.2,38
			c0,0,0,0,0-0.1c0,0,0-0.1,0-0.1l33.8-1.7C395,36.3,395.1,36.4,395.2,36.5z M359.7,38l-13.4,7.3l-3.9-13c0.2-0.1,0.3-0.2,0.4-0.4
			l16.8,5.7c0,0,0,0,0,0C359.6,37.7,359.6,37.9,359.7,38z M334,51.4C334,51.4,334,51.5,334,51.4l-19.9-0.1l-2.6-3.3l3.6-1.9
			L334,51.4z M311.3,47.9l-2.6-3.2c0.1-0.1,0.1-0.2,0.2-0.3l5.9,1.6L311.3,47.9z M307.8,44.8l-2.4,5.8c0,0,0,0-0.1,0
			c-0.4-0.1-0.9,0.2-1,0.6c0,0,0,0.1,0,0.1l-4,0l7.2-6.5C307.7,44.8,307.8,44.8,307.8,44.8z M304.4,51.4c0,0.1,0,0.2,0.1,0.3
			l-14.7,9.2l10.5-9.5L304.4,51.4z M284.4,63.8l-11.3,0.5l-7-12.2c0.1,0,0.1-0.1,0.2-0.2l18.2,11.6c0,0.1-0.1,0.1-0.1,0.2
			C284.4,63.7,284.4,63.7,284.4,63.8z M246.6,65.3l-4.3-0.1l21.8-12.8L246.6,65.3z M246.4,65.4l-1,0.8l-7.3,1.6c0,0,0-0.1,0-0.1
			l4-2.3L246.4,65.4z M238,67.5c-0.1-0.1-0.3-0.3-0.5-0.3c-0.4-0.1-0.7,0.1-0.9,0.4l-5.8-2.4c0,0,0,0,0-0.1c0,0,0-0.1,0-0.1
			l10.8,0.2L238,67.5z M288.7,61.5l-2.7,1.7l13.7-11.8h0.1L288.7,61.5z M230.9,65.3l5.8,2.4c0,0,0,0.1,0,0.1c-0.1,0.4,0.2,0.9,0.6,1
			c0,0,0,0,0.1,0l-0.3,2.9c-0.2,0-0.4,0.1-0.5,0.2l-5.8-6.3C230.8,65.5,230.9,65.4,230.9,65.3z M237.7,72.1l5.9-3.5l31.9,3.2
			l-37.7,0.5C237.8,72.3,237.8,72.2,237.7,72.1z M278.1,71.5l8.1-6l10.5,17.5c-0.1,0-0.1,0.1-0.2,0.2l-18.3-11
			c0-0.1,0.1-0.1,0.1-0.2C278.2,71.9,278.2,71.7,278.1,71.5z M297.8,83.5l23.4-11.4l5.3,6.8c-0.1,0.1-0.2,0.2-0.2,0.4
			c0,0.1,0,0.1,0,0.2L297.8,83.5C297.8,83.5,297.8,83.5,297.8,83.5z M349.1,85.9c-0.1,0.4,0.2,0.8,0.6,0.9c0.3,0.1,0.6-0.1,0.8-0.3
			l6.6,4.5l0,0c0,0,0,0,0,0l-28.4-11L349.1,85.9z M358.4,90.8l3.5-6.2l17.9-2.4c0,0,0,0,0,0L358.6,91
			C358.6,90.9,358.5,90.8,358.4,90.8z M381.3,82l22.2,0.7l4.3,10.1c-0.1,0.1-0.2,0.2-0.3,0.3l-26.2-11
			C381.3,82.1,381.3,82.1,381.3,82C381.3,82.1,381.3,82,381.3,82z M409,93.6l14.3-1.8l20,11.7L409,93.7C409,93.6,409,93.6,409,93.6z
			 M444.8,104.1l27.5,5.1c0,0.4,0.2,0.7,0.6,0.8l-4.2,26.4c-0.2,0-0.3,0-0.4,0.1l-23.7-32.1C444.7,104.3,444.8,104.2,444.8,104.1z
			 M469.2,136.7l23.4-24.8c0.1,0.1,0.2,0.1,0.3,0.1c0.2,0.1,0.4,0,0.6-0.1l16.7,21.3c-0.1,0.1-0.2,0.2-0.2,0.4c0,0,0,0.1,0,0.1
			l-40.6,3.3C469.4,136.9,469.3,136.8,469.2,136.7z M511.2,133.1l15-33.9c0,0,0,0,0,0c0.2,0.1,0.5,0,0.7-0.2l18.5,19.8
			c-0.1,0.1-0.2,0.2-0.2,0.3c0,0.1,0,0.3,0,0.4l-33.7,13.7C511.4,133.2,511.3,133.1,511.2,133.1z M546.1,118.7
			C546.1,118.7,546,118.7,546.1,118.7l1.1-16.1c0.4,0,0.7-0.2,0.8-0.6c0-0.1,0-0.2,0-0.3l27.3-6.6c0,0.1,0,0.1,0.1,0.2l-28.9,23.7
			C546.4,118.8,546.2,118.7,546.1,118.7z M599.5,69.5l-26.7,5c-0.1-0.3-0.3-0.5-0.6-0.6c0,0,0,0-0.1,0l1.6-23.1
			c0.2,0,0.4-0.1,0.6-0.3L599.6,69c0,0.1-0.1,0.1-0.1,0.2C599.5,69.3,599.5,69.4,599.5,69.5z M573.6,50.9
			C573.6,50.9,573.6,50.9,573.6,50.9L572,73.9c-0.3,0-0.5,0.2-0.7,0.4l-27.9-12.1c0,0,0,0,0-0.1c0-0.1,0-0.3,0-0.4l29.6-11.4
			C573.2,50.6,573.4,50.8,573.6,50.9z M542,62.4l-27.2,22.1c-0.1-0.1-0.2-0.2-0.4-0.2c-0.1,0-0.2,0-0.3,0l-8-30.7
			c0.2-0.1,0.4-0.2,0.5-0.5l35.3,8.8C541.9,62.1,541.9,62.3,542,62.4z M505.1,53.1L474,65.4c-0.1-0.2-0.3-0.4-0.5-0.4c0,0,0,0,0,0
			l2.4-34.8c0.2,0,0.4-0.1,0.5-0.2l28.9,22.5c0,0.1-0.1,0.1-0.1,0.2C505.1,52.8,505.1,52.9,505.1,53.1z M475.5,30.2
			C475.6,30.2,475.6,30.2,475.5,30.2L473.2,65c-0.1,0-0.1,0-0.2,0l-13.2-30.1c0.2-0.1,0.3-0.3,0.4-0.5c0-0.1,0-0.2,0-0.3l14.8-4.4
			C475.1,29.9,475.3,30.1,475.5,30.2z M458.8,34.7l-20.5,20.9c-0.1-0.1-0.2-0.1-0.3-0.2c-0.1,0-0.2,0-0.3,0l-7.7-35.2
			c0.2-0.1,0.3-0.2,0.4-0.3l28.1,14c0,0,0,0.1,0,0.1C458.6,34.3,458.7,34.5,458.8,34.7z M429.2,19.9c0.1,0.1,0.2,0.2,0.3,0.3
			L417.1,52c0,0,0,0,0,0c-0.3-0.1-0.6,0-0.8,0.2l-19.9-15.8c0-0.1,0.1-0.2,0.1-0.3c0-0.2,0-0.3,0-0.4L429.2,19.9z M395,35.9
			l-33.8,1.6c0-0.3-0.2-0.5-0.5-0.6l4.8-18.3c0.3,0.1,0.6-0.1,0.8-0.3L395,35.7c0,0-0.1,0.1-0.1,0.1C395,35.8,395,35.9,395,35.9z
			 M365,18.3c0.1,0.1,0.2,0.2,0.4,0.3l-4.8,18.3c-0.4-0.1-0.7,0.1-0.9,0.5l-16.8-5.7c0,0,0,0,0,0c0-0.2,0-0.4-0.1-0.5L365,18.3z
			 M315,45.9l-6-1.7c0-0.1,0-0.2,0-0.3l31.8-11.8L315,45.9z M300.1,51.2H300l2.6-2.2L300.1,51.2z M285.7,63.3
			c-0.1-0.1-0.2-0.2-0.4-0.2c-0.3-0.1-0.6,0.1-0.8,0.3l-18.2-11.6c0-0.1,0.1-0.1,0.1-0.2c0,0,0-0.1,0-0.1l33.1-0.1L285.7,63.3z
			 M242,65.2l-11-0.3c0,0,0-0.1,0-0.1l33.6-12.9L242,65.2z"/>
	</g>
	<radialGradient id="XMLID_45_" cx="165.5401" cy="16" r="69" gradientUnits="userSpaceOnUse">
		<stop  offset="0.2366" style="stop-color:#6394B0"/>
		<stop  offset="0.2427" style="stop-color:#6191AD"/>
		<stop  offset="0.3371" style="stop-color:#486B7F"/>
		<stop  offset="0.4352" style="stop-color:#324A58"/>
		<stop  offset="0.5357" style="stop-color:#202F38"/>
		<stop  offset="0.6395" style="stop-color:#121A1F"/>
		<stop  offset="0.7478" style="stop-color:#080C0E"/>
		<stop  offset="0.8636" style="stop-color:#020303"/>
		<stop  offset="1" style="stop-color:#000000"/>
	</radialGradient>
	<circle id="XMLID_2800_" class="st2" cx="165.5" cy="16" r="69"/>
	<radialGradient id="XMLID_46_" cx="86.3736" cy="93.334" r="69" gradientUnits="userSpaceOnUse">
		<stop  offset="0.2366" style="stop-color:#6394B0"/>
		<stop  offset="0.2427" style="stop-color:#6191AD"/>
		<stop  offset="0.3371" style="stop-color:#486B7F"/>
		<stop  offset="0.4352" style="stop-color:#324A58"/>
		<stop  offset="0.5357" style="stop-color:#202F38"/>
		<stop  offset="0.6395" style="stop-color:#121A1F"/>
		<stop  offset="0.7478" style="stop-color:#080C0E"/>
		<stop  offset="0.8636" style="stop-color:#020303"/>
		<stop  offset="1" style="stop-color:#000000"/>
	</radialGradient>
	<circle id="XMLID_2801_" class="st3" cx="86.4" cy="93.3" r="69"/>
	
		<radialGradient id="SVGID_1_" cx="108.5134" cy="126.3125" r="46.9246" gradientTransform="matrix(2.058 0 0 0.9493 66.886 -38.9085)" gradientUnits="userSpaceOnUse">
		<stop  offset="0.2366" style="stop-color:#6394B0"/>
		<stop  offset="0.2427" style="stop-color:#6191AD"/>
		<stop  offset="0.3371" style="stop-color:#486B7F"/>
		<stop  offset="0.4352" style="stop-color:#324A58"/>
		<stop  offset="0.5357" style="stop-color:#202F38"/>
		<stop  offset="0.6395" style="stop-color:#121A1F"/>
		<stop  offset="0.7478" style="stop-color:#080C0E"/>
		<stop  offset="0.8636" style="stop-color:#020303"/>
		<stop  offset="1" style="stop-color:#000000"/>
	</radialGradient>
	<ellipse class="st4" cx="290.2" cy="81" rx="96.6" ry="44.5"/>
	
		<radialGradient id="SVGID_2_" cx="-174.5718" cy="46.167" r="56.5006" gradientTransform="matrix(1.7977 0 0 1 544.2007 0)" gradientUnits="userSpaceOnUse">
		<stop  offset="0.2366" style="stop-color:#D38261"/>
		<stop  offset="0.3001" style="stop-color:#AD6A4F"/>
		<stop  offset="0.3872" style="stop-color:#7F4E3B"/>
		<stop  offset="0.4779" style="stop-color:#583628"/>
		<stop  offset="0.5709" style="stop-color:#38231A"/>
		<stop  offset="0.6668" style="stop-color:#1F130E"/>
		<stop  offset="0.7669" style="stop-color:#0E0906"/>
		<stop  offset="0.8739" style="stop-color:#030202"/>
		<stop  offset="1" style="stop-color:#000000"/>
	</radialGradient>
	<ellipse class="st5" cx="230.4" cy="46.2" rx="101.6" ry="56.5"/>
</g>
</svg>
