<?xml version="1.0" encoding="utf-8"?>
<!-- Generator: Adobe Illustrator 19.0.0, SVG Export Plug-In . SVG Version: 6.00 Build 0)  -->
<svg version="1.1" id="Layer_1" xmlns="http://www.w3.org/2000/svg" xmlns:xlink="http://www.w3.org/1999/xlink" x="0px" y="0px"
	 viewBox="0 0 600 216.7" style="enable-background:new 0 0 600 216.7;" xml:space="preserve">
<style type="text/css">
	.st0{display:none;}
	.st1{font-family:'NexaLight';}
	.st2{font-size:70.0763px;}
	.st3{display:inline;}
	.st4{font-family:'NexaBold';}
	.st5{opacity:0.2;fill:#ED6D23;}
	.st6{opacity:0.5;fill:#56C0EE;}
	.st7{opacity:0.5;fill:#84CBA1;}
	.st8{opacity:0.5;fill:#5CBC6B;}
	.st9{opacity:0.75;fill:#E53A35;}
	.st10{opacity:0.4;fill:#ED6D23;}
	.st11{opacity:0.5;fill:#E53A35;}
	.st12{fill:#EF4323;}
	.st13{fill:#5CBC6B;}
	.st14{fill:#44A9DF;}
	.st15{fill:#25BAA2;}
</style>
<text id="XMLID_3_" transform="matrix(1 0 0 1 225.3339 90.3483)" class="st0 st1 st2">IEMGRAPH</text>
<g id="XMLID_38_" class="st0">
	<text id="XMLID_81_" transform="matrix(1 0 0 1 409.334 166.7804)" class="st3 st4 st2">2018</text>
</g>
<g id="XMLID_55_">
	<g id="XMLID_4_">
		<path id="XMLID_14_" class="st5" d="M28.5,31.4L28.5,31.4c0,4.9,3.9,8.8,8.8,8.8H179c4.9,0,8.8-3.9,8.8-8.8v0
			c0-4.9-3.9-8.8-8.8-8.8H37.3C32.5,22.6,28.5,26.5,28.5,31.4z"/>
		<path id="XMLID_21_" class="st5" d="M28.6,31.4c0,0.1,0,0.3,0,0.4c0,4.9,3.9,8.8,8.8,8.8H179c4.9,0,8.8-3.9,8.8-8.8
			c0-0.1,0-0.3,0-0.4H28.6z"/>
		<path id="XMLID_9_" class="st6" d="M37.3,181.8L37.3,181.8c-4.9,0-8.8-3.9-8.8-8.8V31.4c0-4.9,3.9-8.8,8.8-8.8h0
			c4.9,0,8.8,3.9,8.8,8.8V173C46.1,177.9,42.2,181.8,37.3,181.8z"/>
		<path id="XMLID_10_" class="st7" d="M28.5,173L28.5,173c0-4.9,3.9-8.8,8.8-8.8h94.2c4.9,0,8.8,3.9,8.8,8.8v0
			c0,4.9-3.9,8.8-8.8,8.8H37.3C32.5,181.8,28.5,177.9,28.5,173z"/>
		<path id="XMLID_16_" class="st8" d="M28.5,173c0,4.8,5.4,8.8,8.8,8.8l95.3-0.1c3.4,0,7.6-3.9,7.6-8.7H28.5z"/>
		<path id="XMLID_11_" class="st6" d="M37.2,22.6c-4.8,0-8.7,4-8.7,8.8V173c0,4.8,3.9,8.7,8.7,8.8V22.6z"/>
		<path id="XMLID_1_" class="st9" d="M31.1,179.2L31.1,179.2c-3.4-3.4-3.4-9,0-12.4L172.8,25.1c3.4-3.4,9-3.4,12.4,0l0,0
			c3.4,3.4,3.4,9,0,12.4L43.5,179.2C40.1,182.7,34.5,182.7,31.1,179.2z"/>
		<path id="XMLID_15_" class="st10" d="M179.2,140.9L179.2,140.9c-4.9,0-8.8-3.9-8.8-8.8V31.4c0-4.9,3.9-8.8,8.8-8.8h0V140.9z"/>
		<path id="XMLID_5_" class="st9" d="M179,88.6L179,88.6c-4.9,0-8.8-3.9-8.8-8.8V31.4c0-4.9,3.9-8.8,8.8-8.8h0
			c4.9,0,8.8,3.9,8.8,8.8v48.4C187.8,84.7,183.9,88.6,179,88.6z"/>
		<path id="XMLID_6_" class="st11" d="M121.8,31.4L121.8,31.4c0-4.9,3.9-8.8,8.8-8.8H179c4.9,0,8.8,3.9,8.8,8.8v0
			c0,4.9-3.9,8.8-8.8,8.8h-48.4C125.7,40.1,121.8,36.2,121.8,31.4z"/>
		<path id="XMLID_13_" class="st11" d="M187.8,31.7c0-0.1,0-0.3,0-0.4c0-4.9-3.9-8.8-8.8-8.8h-48.4c-4.9,0-8.8,3.9-8.8,8.8
			c0,0.1,0,0.3,0,0.4H187.8z"/>
		<path id="XMLID_8_" class="st11" d="M179.4,22.6c-0.1,0-0.3,0-0.4,0c-4.9,0-8.8,3.9-8.8,8.8v48.4c0,4.9,3.9,8.8,8.8,8.8
			c0.1,0,0.3,0,0.4,0V22.6z"/>
		<path id="XMLID_7_" class="st9" d="M185.2,25.1L185.2,25.1c-0.2-0.2-0.4-0.4-0.6-0.5l-154,154c0.2,0.2,0.3,0.4,0.5,0.6l0,0
			c3.4,3.4,9,3.4,12.4,0L185.2,37.6C188.6,34.1,188.6,28.6,185.2,25.1z"/>
		<path id="XMLID_2_" class="st10" d="M179,140.9L179,140.9c4.9,0,8.8-3.9,8.8-8.8V31.4c0-4.9-3.9-8.8-8.8-8.8h0
			c-4.9,0-8.8,3.9-8.8,8.8v100.7C170.2,136.9,174.2,140.9,179,140.9z"/>
	</g>
	<rect id="XMLID_12_" x="221.4" y="110.1" class="st12" width="130" height="3.6"/>
	<rect id="XMLID_40_" x="351.4" y="110.1" class="st13" width="130" height="3.6"/>
	<rect id="XMLID_41_" x="481.4" y="110.1" class="st14" width="86.2" height="3.6"/>
	<g id="XMLID_17_">
		<path id="XMLID_18_" d="M221.4,87.1V38.1h3.7v49.1H221.4z"/>
		<path id="XMLID_20_" d="M239.6,60.7h28.7v3.4h-28.7v19.3h31v3.6h-34.7V38.1h33.9v3.6h-30.1V60.7z"/>
		<path id="XMLID_23_" d="M321.7,43.5l-18.8,28.7h-1.3l-18.9-28.7v43.6H279V38.1c1.8,0,2.7,0,4.5,0l18.8,28.6l18.6-28.6h4.6v49.1
			h-3.7V43.5z"/>
		<path id="XMLID_25_" d="M374.8,47.1c-4.3-4.2-10.2-6.3-15.8-6.3c-14.4,0-21.7,10.5-21.7,21.9c0,11.6,7.4,21.5,21.7,21.5
			c5.3,0,10.7-1.8,14.9-5.7V64.8h-17.1v-3.3h20.7v18.4c-5.1,5.1-11.2,7.9-18.5,7.9c-16.7,0-25.3-11.6-25.3-25
			c-0.1-15.3,10.4-25.4,25.3-25.4c6.4,0,13,2.5,17.9,7.4L374.8,47.1z"/>
		<path id="XMLID_27_" d="M426.3,87.1h-5l-17-18.6H391v18.6h-3.8V38.1c7.2,0,14.4,0,21.6,0c10.7,0,16,7.6,16.1,15.3
			c0.1,8-5.2,15-15.9,15L426.3,87.1z M391,65h17.4c8.5,0,12.3-4.8,12.4-11.7c0.1-5.7-3.9-11.7-12-11.7H391V65z"/>
		<path id="XMLID_30_" d="M471.6,87.1l-5.4-12.1h-29.3l-5.3,12.1h-4.1l22-49.1h4.1l22,49.1H471.6z M464.8,71.6l-13.2-29.9
			l-13.2,29.9H464.8z"/>
		<path id="XMLID_33_" d="M485,70.2v17h-3.8V38.1c7.1,0,14.4,0,21.5,0c21.3,0,21.3,32.1,0,32.1H485z M485,41.6v25.2h17.7
			c16.3,0,16.3-25.2,0-25.2H485z"/>
		<path id="XMLID_36_" d="M562.2,87.1V64.8h-31.3v22.3h-3.8V38.1h3.8v23.3h31.3V38.1h3.8v49.1H562.2z"/>
	</g>
	<g id="XMLID_56_">
		<g id="XMLID_156_">
			<path id="XMLID_166_" class="st15" d="M404.7,147c0.1-10.4,9.9-14.9,18.9-14.9c9.8,0,20.5,4,20.5,15.6c0,12.5-9.4,14.9-19.7,14.9
				c-4.1,0-10.7,1.1-10.7,6.4v4.2h30.5v8.6h-39.7c0-4.3,0-8.6,0-12.9c0-11.3,10.2-14.6,19.9-14.6c3.7,0,10.5-0.6,10.5-6.3
				c0-5.3-4.8-7.8-11.1-7.8c-4.8,0-9.8,2.5-9.9,6.9H404.7z"/>
			<path id="XMLID_163_" class="st15" d="M449.9,153.7c0-29.3,43-29.2,43,0v7.1c0,29.2-43,29.3-43,0V153.7z M459.1,160.8
				c0,17.8,24.7,17.8,24.7,0v-7.1c0-17.5-24.7-17.7-24.7,0V160.8z"/>
			<path id="XMLID_161_" class="st15" d="M497.2,174h7.4v-32.8h-7.6v-8.4h16.8V174h6.8v7.8h-23.3V174z"/>
			<path id="XMLID_157_" class="st15" d="M532.8,156.5c-4.2-2.2-6.2-5.9-6.2-9.7c0-9.9,9.1-14.9,19.8-14.9
				c10.6,0,20.1,5.1,20.1,14.9c0,3.4-1.9,7.4-6.3,9.3c5,2,7.4,7.1,7.4,10.9c0.2,11.4-10.3,16-21.2,15.9
				c-10.7-0.1-21.3-4.4-21.1-15.9C525.4,163.2,527.7,158.6,532.8,156.5z M535,167.2c-0.1,3.8,4,7.4,11.5,7.4
				c7.5,0,11.6-3.5,11.5-7.4c-0.1-4.8-5.3-7-11.5-7C540.7,160.2,535,162.3,535,167.2z M546.4,153.4c5.7,0,10.2-2.6,10.4-6.9
				c0.1-4.1-4.2-6.9-10.4-6.9c-6.9,0-10.4,3.6-10.3,6.9C536.2,150.8,541.1,153.4,546.4,153.4z"/>
		</g>
	</g>
</g>
</svg>
