<?xml version="1.0" encoding="utf-8"?>
<!-- Generator: Adobe Illustrator 22.0.0, SVG Export Plug-In . SVG Version: 6.00 Build 0)  -->
<svg version="1.1" id="Layer_1" xmlns="http://www.w3.org/2000/svg" xmlns:xlink="http://www.w3.org/1999/xlink" x="0px" y="0px"
	 viewBox="0 0 1024 1024" style="enable-background:new 0 0 1024 1024;" xml:space="preserve">
<style type="text/css">
	.st0{fill:#F27421;}
	.st1{fill:#2586C7;}
	.st2{fill:#2886C7;}
	.st3{fill:#2485C7;}
	.st4{fill:#F8A771;}
	.st5{fill:#F9AE7D;}
	.st6{fill:#FFF3EC;}
	.st7{fill:#FDDEC7;}
	.st8{fill:#C3D3ED;}
</style>
<g>
	<path class="st0" d="M534.8,590.1c0,1-0.1,2-0.1,2.9c-0.2,125.6-0.5,251.1-0.7,376.7c0,0.8,0,1.6-0.1,2.5c-0.2,0-0.4,0-0.7,0.1
		c-0.3-2.1-0.7-4.2-1-6.3c-0.5-3.7-0.8-7.5-1.3-11.2c-0.4-3.2-0.8-6.3-1.2-9.5c-0.4-3.7-0.8-7.3-1.2-11c-0.4-3.4-0.8-6.8-1.2-10.2
		c-0.4-3.4-0.8-6.9-1.2-10.3c-0.4-3.6-0.8-7.1-1.3-10.7c-0.5-3.6-1.1-7.1-1.5-10.7c-0.4-3.2-0.6-6.5-1-9.8c-0.4-3.6-1-7.2-1.4-10.7
		c-0.4-3.2-0.7-6.5-1.1-9.7c-0.4-3.6-0.9-7.2-1.3-10.8c-0.4-3.3-0.8-6.6-1.2-10c-0.4-3.6-0.9-7.2-1.3-10.8
		c-0.4-3.4-0.9-6.8-1.3-10.2c-0.4-3.6-0.9-7.1-1.3-10.7c-0.4-3.3-0.8-6.7-1.2-10c-0.4-3.6-0.9-7.1-1.3-10.7c-0.4-3.2-0.6-6.4-1-9.5
		c-0.4-3.6-0.8-7.2-1.3-10.8c-0.4-3.3-0.8-6.6-1.2-10c-0.4-3.6-0.9-7.2-1.3-10.8c-0.4-3.4-0.7-6.8-1.2-10.2c-0.6-4.9-1.3-9.8-2-14.8
		c-0.4-3.2-0.7-6.5-1.1-9.8c-0.4-3.7-1-7.3-1.4-10.9c-0.4-3.2-0.7-6.4-1.1-9.5c-0.4-3.7-0.9-7.5-1.4-11.2c-0.4-3.3-0.7-6.5-1.1-9.8
		c-0.6-5-1.3-10-1.9-15c-0.4-3.3-0.5-6.7-0.9-10c-0.4-3.5-1-7-1.4-10.4c-0.4-3.3-0.7-6.5-1.1-9.8c-0.4-3.4-0.7-6.9-1.1-10.3
		c-0.4-3.6-0.9-7.1-1.3-10.7c-0.4-3.5-0.9-7-1.4-10.5c-0.4-3.3-0.8-6.7-1.2-10c-0.4-3.6-0.9-7.1-1.3-10.7c-0.4-3.3-0.8-6.5-1.2-9.8
		c-0.5-3.7-1-7.5-1.4-11.2c-0.4-3.3-0.6-6.7-1-10c-0.4-3.5-1-7-1.4-10.5c-0.4-3.3-0.8-6.5-1.1-9.8c-0.4-3.7-0.9-7.3-1.3-11
		c-0.4-3.3-0.7-6.5-1.1-9.8c-0.4-3.6-0.9-7.3-1.4-10.9c-0.4-3.3-0.7-6.5-1.1-9.8c-0.4-3.6-0.9-7.3-1.4-10.9
		c-0.4-3.3-0.7-6.5-1.1-9.8c-0.4-3.6-0.9-7.3-1.4-10.9c-0.4-3.3-0.7-6.5-1.1-9.8c-0.4-3.4-0.7-6.9-1.1-10.3
		c-0.4-3.6-0.8-7.3-1.3-10.9c-0.5-3.5-1-7-1.5-10.5c-0.4-3.3-0.7-6.5-1-9.8c-0.4-3.6-0.9-7.2-1.4-10.7c-0.4-3.3-0.8-6.5-1.2-9.8
		c-0.4-3.6-0.9-7.3-1.3-10.9c-0.3-2.5-0.5-5.1-0.8-8.4c-63.9,76.7-127.4,153-190.8,229.2c-0.1-0.1-0.3-0.2-0.4-0.3
		c62.8-127.3,125.6-254.6,188.5-382c2.2-4.4,4.4-8.9,6.6-13.3c4-8.2,8.1-16.4,12.1-24.6c2-4.1,4.1-8.2,6.1-12.3
		c4-8.2,8.1-16.4,12.1-24.6c2.2-4.4,4.4-8.9,6.6-13.3c4-8.2,8.1-16.4,12.1-24.6c2-4.1,4.1-8.2,6.1-12.3c4-8.2,8.1-16.4,12.1-24.6
		c1.2-2.3,2.3-4.5,3.5-6.8c0.2-0.3,0.6-0.4,1-0.7c0,3.1,0,6.2,0,9.4c0,3.9,0,7.9,0,11.8c0,3-0.1,5.9-0.1,8.9
		c-0.2,78.6-0.3,157.3-0.5,235.9c0,1,0.1,2,0.1,2.9c0,4.1,0,8.2,0,12.3c0,3-0.1,5.9-0.1,8.9c-0.2,78.6-0.3,157.3-0.5,235.9
		c0,1,0.1,2,0.1,2.9C534.8,581.8,534.8,585.9,534.8,590.1z"/>
	<path class="st0" d="M274.1,696.4c-5.6,3.2-11.5,5.8-17.9,6.6c-3.5,0.4-7,0.5-10.5,0.3c-2.9-0.1-5.9-0.6-8.8-1.3
		c-2.9-0.7-5.7-1.9-8.1-2.7c-3.5,2.5-6.8,5.4-10.5,7.2c-3.8,1.8-8,2.6-12.4,3.9c10,12.3,20.2,24.9,30.6,37.7c-0.8,0.1-1.4,0.2-2,0.2
		c-8.4,0-16.9,0-25.3,0c-1.6,0-2.5-0.5-3.3-1.8c-11.5-18.1-23-36.2-34.5-54.3c-2.1-3.2-4-6.5-6.1-9.8c3.9-3.5,7.6-6.8,11.5-10.3
		c2.4,3.3,4.8,6.6,7.2,9.8c3.9,5,7.8,10,11.7,15.1c1,1.3,2.1,1.5,3.6,1c4.5-1.7,7.4-4.7,8.1-9.5c1.4-9-0.7-17.5-4.7-25.4
		c-3.3-6.5-7.3-12.7-11.1-19c-0.6-0.9-1.8-1.4-3.2-2.5c5.8-2.8,10.9-5.2,16-7.7c2.9-1.4,5.9-2.7,8.8-4c0.4-0.2,0.8-0.4,1.3-0.6
		c-0.1-0.1-0.1-0.3-0.2-0.4c-0.3,0.1-0.7,0.2-1,0.3c-18.8,0-37.6,0-56.5,0c-0.7,0-1.5,0.1-2.2,0.1c-0.1,0.2-0.3,0.4-0.4,0.6
		c0,14.2-0.1,28.4-0.1,42.6c0,0.9,0,1.7,0,2.5c-4.9-2.9-9.5-6-14.4-8.4c-7.7-3.7-15.8-6.1-24.3-7.7c-7.4-1.4-14.7-2-22.1-1.8
		c-12.5,0.4-23.7,4.1-31.9,14.1c-3.5,4.3-5.9,9.2-7,15.1c4.2-1.4,7.9-2.7,11.7-3.9c12.9-4.1,26.2-5.6,39.7-4.6
		c15.1,1.1,28.6,6.7,40.2,16.7c6,5.2,10.8,11.4,12.5,19.3c1.8,8.2-0.1,15.5-5.8,21.7c-5.6,6.1-12.6,9.8-20.1,12.5
		c-5.2,1.8-10.6,3-15.9,4.5c-0.5,0.1-0.9,0.3-1.7,0.6c7.7,9.9,15.3,19.7,23.1,29.9c-1.1,0-1.8,0-2.5,0c-8.7,0-17.4,0-26.1,0
		c-1.4,0-2.2-0.5-2.9-1.6c-6-9-12-18.1-18-27.1c-0.9-1.3-1.9-2.1-3.5-2.5c-6.5-1.8-12.5-4.8-18-8.8c-5.2-3.8-9.5-8.2-13.1-13.7
		c8.9-6,17.8-11.9,26.5-17.7c0.9,4.1,1.4,7.9,2.5,11.6c2.4,7.6,7.8,12.6,15.3,15.1c7.3,2.4,14.6,2.6,21.9-0.2c4.6-1.8,8-5,10.5-9.3
		c1.8-3.2,1.7-6.4-0.2-9.5c-2.3-3.8-5.6-6.4-9.5-8.4c-7.7-4-16-5.8-24.6-6.4c-6.6-0.4-13.3-0.5-19.8,0c-8.5,0.6-16.8,2.5-24.6,6
		c-1.6,0.7-2.2,0.5-3-1c-3.6-6.2-5.9-12.8-6.8-20c-1.4-11.1,1.8-20.8,7.7-29.9c5.9-9.1,14.8-14.1,24.4-18.2
		c10.3-4.4,21.2-5.1,32.2-4.4c4.8,0.3,9.5,1.7,14.3,2.6c0.6,0.1,1.2,0.3,2.1,0.4c0-3.8,0-7.3,0-11.2c-31.1,0-62.1,0-93.4,0
		c0-6.9,0-13.6,0-20.5c130,0,259.9,0,390.2,0c-3.6-9.7-7.5-18.8-15.3-25.6c-4.3-3.7-9.1-6.1-14.8-6.4c-6.5-0.2-13-0.1-19.8-0.1
		c1-2.4,2.1-5.1,3.3-7.9c1.9-4.5,3.7-9.1,5.7-13.6c0.3-0.7,1.2-1.5,1.8-1.5c9.4-0.5,18.7-0.4,27.3,4.5c7.7,4.4,13,11,17.3,18.5
		c5.7,10,9.3,20.8,12.5,32c7.4,0,14.8,0,22.3,0c0,6.9,0,13.6,0,20.4c-5.4,0-10.6,0-16,0c0,39.7,0,79.2,0,118.9
		c-10.3,0-20.3,0-30.7,0c0-39.5,0-79,0-118.7c-12.1,0-24,0-36.1,0c1.9,2.9,3.9,5.6,5.5,8.4c4.4,7.4,7,15.5,7.9,24.1
		c0.9,9,1,17.9-1.5,26.7c-3.2,11.5-10.7,18.3-22.3,20.6c-1.3,0.3-2.7,0.5-4.4,0.8c10.1,12.7,20.1,25.3,30.4,38.3c-1,0-1.6,0-2.2,0
		c-8.6,0-17.2,0-25.9,0c-1.4,0-2.1-0.4-2.9-1.6c-9.9-15.9-19.9-31.8-29.9-47.7c-3.5-5.6-7.1-11-10.7-16.6c3.9-3.4,7.8-6.8,11.7-10.2
		c5.3,7,10.5,13.9,15.7,20.7c0.4,0.6,0.9,1.2,1.4,1.7c1.4,1.2,2.8,3.4,4.1,3.4c3.3-0.1,6.1-2,7.7-5.1c2.1-3.9,2.7-8.1,1.7-12.6
		c-0.9-4-1.4-8.1-2.5-12.1c-2.1-7.7-6.1-14.4-10.8-20.8c-1.5-2.1-3.2-4.1-5-6.3c8-3.7,16-7.5,24.1-11.3c0.5-0.1,0.9-0.2,1.4-0.4
		c0-0.2-0.1-0.3-0.1-0.5c-0.4,0.1-0.8,0.1-1.2,0.2c-20.7,0-41.4,0-62.1,0c-0.7,0-1.3,0.1-2,0.1c-0.1,0.2-0.3,0.4-0.4,0.5
		c0,1-0.1,2-0.1,2.9c0,37.4,0,74.8,0,112.2c0,1,0,1.9,0,3c-10.3,0-20.3,0-30.7,0c0-17.3,0-34.5,0-51.7c0-0.1,0-0.2,0-0.3
		C274.4,696.2,274.2,696.3,274.1,696.4z M274.6,629.4c-18.1,0-36,0-54.2,0c14.7,17.6,16.6,37.8,12.9,59.2c0.4,0,0.7,0.1,1,0.1
		c13.3-1.1,24.8-6.3,34.7-15.2c3.9-3.5,6.1-7.8,5.6-13.3c-0.2-1.9,0-3.8,0-5.7C274.6,646.2,274.6,637.9,274.6,629.4z"/>
	<path class="st1" d="M615.4,687.1c0.2-0.5,0.3-1,0.5-1.5c1.6-3.9,3.3-7.9,4.9-11.8c1-2.1,2.1-4.2,3.1-6.3c3.3-4.8,6.5-9.6,9.8-14.4
		c1.5-1.5,2.9-2.9,4.4-4.4c3.2-2.4,6.3-4.9,9.5-7.3c0.3-0.2,0.6-0.4,0.9-0.6c1-0.6,2-1.2,3-1.9c0.3-0.2,0.6-0.4,0.9-0.5
		c2-1,3.9-2,5.9-3c0.3-0.1,0.7-0.3,1-0.4c2-0.8,4-1.5,6-2.3c1-0.4,1.9-0.7,2.9-1.1c1.6-0.4,3.2-0.8,4.8-1.2c0.7-0.2,1.4-0.4,2.1-0.5
		c0-0.1-0.1-0.3-0.1-0.4c-0.7,0.1-1.4,0.1-2.1,0.2c-1.6,0-3.3,0-4.9,0.1c-1.1,0-2.1-0.1-3.2-0.1c-34.7,0-69.4,0-104.2,0
		c-1,0-2,0-3.1,0c0-6.7,0-13.1,0-19.8c145.8,0,291.6,0,437.5,0c0.1,0.8,0.1,1.4,0.1,2.1c0,5.8,0,11.6,0,17.8c-1.2,0-2.3,0-3.3,0
		c-88.4,0-176.8,0-265.2,0c-1.1,0-2.3,0.1-3.4,0.1c-2.1,0-4.2,0-6.4-0.1c-0.2,0.1-0.5,0.1-0.7,0.2c0.2,0.1,0.4,0.2,0.6,0.2
		c2.5,1.1,5,2.2,7.4,3.3c2.4,1.2,4.9,2.5,7.3,3.7c1.2,0.6,2.3,1.2,3.5,1.9c0,0,0,0,0,0c2.5,1.5,4.9,2.9,7.4,4.4
		c-0.4,0.7-0.6,1.4-1.2,2c-2.4,2.6-4.8,5.1-7.3,7.7c-4.6,4.6-9.2,9.1-13.8,13.8c-1,1-1.8,1.2-2.9,0.6c-0.3-0.2-0.6-0.4-0.9-0.6
		c-1.2-0.6-2.3-1.2-3.5-1.9c-0.3-0.2-0.6-0.4-1-0.6c-2-1.1-4-2.1-6-3.2c-2.8-1.4-5.6-2.7-8.4-4.1c-1.3-0.6-2.6-1.2-4-1.8
		c-0.1-0.1-0.3-0.2-0.4-0.2c-1.2-0.5-2.3-1-3.5-1.5c-0.5-0.2-0.9-0.4-1.4-0.6c-0.3-0.1-0.7-0.2-1-0.4c-0.5-0.2-1-0.4-1.4-0.6
		c-4.3-1.3-8.6-2.5-12.9-3.8c-3.6-0.9-7.2-1.6-10.8,0.1c-4.6,1.8-7.6,5.1-9.8,9.4c-0.1,0.1-0.2,0.3-0.2,0.4c-2,3.1-4.1,6.3-6.1,9.4
		c0,0.3-0.1,0.6-0.1,0.9c0.7,0,1.5,0,2.2,0c8.8,0.3,17.5,0.5,26.3,0.8c0.8,0,1.6,0.1,2.5,0.1c1,0.1,1.9,0.2,2.9,0.3
		c1,0.1,2,0.2,3,0.3c0.5,0.1,0.9,0.2,1.4,0.2c0.7,0.1,1.3,0.1,2,0.2c1.1,0.2,2.3,0.4,3.4,0.6c1,0.2,1.9,0.5,2.9,0.7
		c1.7,0.4,3.3,0.8,5,1.2c9.3,2.9,18,7,25.6,13.3c0.6,0.5,1.2,1,1.8,1.6c0.9,0.9,1.7,1.7,2.6,2.6c0.2,0.3,0.4,0.5,0.6,0.8
		c1.4,2.6,2.9,5.3,4.3,7.9c0.1,2.4,0.3,4.9,0.4,7.3c-0.8,2.5-1.5,4.9-2.3,7.4c-0.2,0.5-0.5,0.9-0.7,1.4c-0.8,1.3-1.6,2.7-2.3,4
		c-0.2,0.3-0.4,0.6-0.5,0.9c-2.3,2.8-4.6,5.7-6.9,8.5c-2.4,2.4-4.8,4.8-7.2,7.2c-1,0.9-2,1.8-3,2.7c-0.3,0.3-0.6,0.5-0.9,0.8
		c-3.8,3.1-7.6,6.1-11.5,9.2c-26.3,0-52.6,0-78.9,0c-0.8,0-1.6,0.1-2.4,0.1c0.2-0.4,0.3-1,0.6-1.3c7.5-7.5,15.1-15,22.7-22.6
		c22.7,0,45.3,0,68,0c1,0.2,1.7,0.1,1.2-1.2c-0.5-1.1-1-2.2-1.5-3.3c-0.2-0.3-0.4-0.6-0.5-1c-1.3-1.7-2.6-3.3-3.8-5
		c-0.3-0.3-0.6-0.5-0.8-0.8c-2.6-2.1-5.2-4.2-7.8-6.3c-1.1-0.7-2.3-1.4-3.4-2.2c-1.6-1-3.3-2-4.9-3c-1.3-0.6-2.6-1.3-3.9-1.9
		c-1.7-0.7-3.3-1.3-5-2c-1.3-0.3-2.6-0.7-3.9-1c-3.1-0.5-6.2-1-9.4-1.5c-0.5-0.1-1-0.1-1.4-0.2c-1-0.1-2-0.2-3-0.3
		c-0.6-0.1-1.3-0.2-1.9-0.3c-1-0.1-2-0.1-3-0.2c-1.5-0.1-2.9-0.2-4.4-0.3c-1.2-0.1-2.4-0.1-3.5-0.2c-2.8-0.1-5.6-0.3-8.4-0.4
		c-0.8,0-1.6,0-2.5-0.1c-6.9-0.2-13.8-0.3-20.7-0.5c-0.5-0.1-1-0.3-1.5-0.4C614.2,690.7,614.8,688.9,615.4,687.1z"/>
	<path class="st1" d="M877.4,725.9c-0.1-0.3-0.2-0.6-0.2-0.9c-0.1-1-0.1-2-0.2-3c0-3.1,0.1-6.2,0.1-9.3c0-21.2,0-42.5,0-63.7
		c0-1,0-1.9,0-3.2c29.2,0,58.2,0,87.2,0c3,1.3,6,2.7,9,4c0.6,0.6,1.3,1.2,1.9,1.8c1.6,2.2,3.2,4.4,4.8,6.5c0.5,1,1,1.9,1.4,2.9
		c0.4,1,0.7,1.9,1.1,2.9c0.1,0.3,0.2,0.7,0.3,1c0.3,1.7,0.6,3.3,0.9,5c0.1,6.3,0.2,12.6,0.2,18.9c0,18.7,0,37.4,0,56.1
		c0,1,0,1.9,0,3.2c-1.1,0.1-2,0.1-3,0.1c-25.7,0-51.3,0-77,0c-0.9,0-1.8,0-2.7,0.1c-1-0.1-2-0.1-3-0.2c-1.1-0.2-2.2-0.4-3.4-0.7
		c-0.7-0.2-1.3-0.4-2-0.6c-0.3-0.1-0.7-0.2-1-0.3c-0.5-0.2-1-0.4-1.5-0.6c-0.7-0.3-1.3-0.6-2-1c-1-0.8-2-1.6-3-2.4
		c-0.4-0.5-0.9-0.9-1.3-1.4C880.6,736.8,878.5,731.5,877.4,725.9z M903.7,673c0,1,0,1.9,0,2.8c0,13.2-0.1,26.4-0.1,39.6
		c0,4.6,0.9,5.5,5.7,5.5c14.7,0,29.4,0,44.1,0c0.9,0,1.9,0,2.9,0c0-14.3,0.1-28.2-0.1-42c-0.1-5.1-1.4-6.1-6.5-6.1
		c-14.5,0-29.1,0-43.6,0.1C905.4,672.9,904.7,672.9,903.7,673z"/>
	<path class="st1" d="M790.5,667.2c0.4-0.4,0.8-0.7,1.2-1.1c1.7-1.4,3.5-2.7,5.2-4.1c0.3-0.2,0.6-0.4,0.8-0.6c4-2.3,8-4.5,12-6.8
		c1-0.5,1.9-0.9,2.9-1.4c2-0.8,4-1.7,6-2.5c3.7-0.8,7.3-2,11-2.2c3.9-0.2,7.9,0.4,11.9,0.7c3,1.6,6,2.9,8.8,4.7
		c4.6,3,7.1,7.8,9.3,12.7c0.5,1.7,1,3.5,1.4,5.2c0.2,1,0.3,2,0.5,3c0.1,0.5,0.1,1,0.2,1.4c0,1.1,0.1,2.3,0.1,3.4c0,1.3,0,2.6,0,3.9
		c-0.4,0.8-0.8,1.6-1.2,2.5c-0.7,0.6-1.3,1.3-2,1.9c-2.5,2.5-5.1,4.9-7.6,7.4c-3.7,3.6-7.3,7.1-11,10.7c-1.1,0.9-2.3,1.7-3.4,2.6
		c0-3.4-0.1-6.9-0.1-10.3c0-0.7-0.1-1.4-0.1-2.1c-0.1-0.3-0.1-0.6-0.2-0.9c-0.3-1.5-0.6-3-0.9-4.5c-0.2-0.6-0.4-1.3-0.6-1.9
		c-0.5-1.2-1-2.4-1.5-3.5c-0.2-0.3-0.3-0.6-0.5-0.9c-1.5-3.4-3.9-6-7.4-7.5c-4.1-2.5-8.6-3.5-13.3-3.7c-1.5,0-3,0-4.4,0
		c-2.8,0.4-5.6,0.8-8.4,1.2c-1.5,0.4-3,0.7-4.4,1.1c-1.6,0.5-3.3,1-4.9,1.6c-1.1,0.4-2.1,0.9-3.2,1.3c-0.1,1-0.3,1.9-0.3,2.9
		c0,21.2,0,42.3,0,63.5c0,1,0,1.9,0,3.1c-9.9,0-19.6,0-29.4,0c0-34.1,0-68,0-102.2c9.7,0,19.4,0,29.5,0c0,7.1,0,14.3,0,21.5
		c0,1.1,0,2.1,0,3.2c0.3,0.2,0.5,0.3,0.8,0.5C788.3,669.8,789.4,668.5,790.5,667.2z"/>
	<path class="st1" d="M580.5,264c1.2,0,2.3,0,3.5,0c1,0.3,1.9,0.5,2.9,0.8c1.2,0.2,2.4,0.5,3.5,0.7c1.3,0.3,2.6,0.6,3.9,0.9
		c0.8,0.2,1.6,0.4,2.5,0.6c1.3,0.3,2.6,0.6,4,0.9c0.8,0.2,1.6,0.4,2.5,0.5c1.5,0.3,3,0.7,4.4,1c0.7,0.2,1.3,0.3,2,0.5
		c1.5,0.3,3,0.7,4.4,1c0.7,0.2,1.3,0.3,2,0.5c1.6,0.4,3.2,0.8,4.9,1.2c0.5,0.1,1,0.2,1.5,0.3c1.6,0.4,3.2,0.8,4.9,1.2
		c0.5,0.1,1,0.2,1.5,0.3c1.6,0.4,3.2,0.8,4.9,1.2c0.7,0.1,1.3,0.3,2,0.4c1.5,0.4,2.9,0.7,4.4,1.1c0.7,0.1,1.3,0.3,2,0.4
		c1.5,0.4,2.9,0.7,4.4,1.1c0.7,0.1,1.3,0.3,2,0.4c1.5,0.4,3,0.7,4.4,1.1c0.7,0.1,1.3,0.3,2,0.4c0.2,0.3,0.5,0.5,0.7,0.8
		c-0.4,0.8-0.8,1.6-1.1,2.4c-1.3,2.6-2.6,5.3-3.8,7.9c-1.3,2.8-2.7,5.6-4,8.4c-1.2,2.4-2.4,4.9-3.6,7.3c-1.3,2.6-2.5,5.3-3.8,7.9
		c-1.2,2.4-2.4,4.9-3.6,7.3c-0.4,0.6-0.7,1.2-1.1,1.8c-1.6-0.3-3.1-0.5-4.6-0.8c-1.6-0.4-3.2-0.8-4.9-1.2c-1.2-0.2-2.3-0.5-3.5-0.7
		c-1-0.2-1.9-0.5-2.9-0.7c-1.2-0.2-2.4-0.5-3.5-0.7c-1.5-0.3-3-0.7-4.4-1c-0.7-0.1-1.3-0.3-2-0.4c-1.5-0.3-3-0.7-4.4-1
		c-0.7-0.2-1.3-0.3-2-0.5c-1.5-0.3-3-0.7-4.4-1c-0.7-0.2-1.3-0.3-2-0.5c-1.6-0.4-3.2-0.8-4.9-1.2c-0.5-0.1-1-0.2-1.5-0.3
		c-1.6-0.4-3.2-0.8-4.9-1.2c-1.2-0.2-2.3-0.5-3.5-0.7c-1-0.2-1.9-0.5-2.9-0.7c-1.2-0.2-2.4-0.5-3.5-0.7c-1.5-0.3-3-0.7-4.4-1
		c-0.7-0.1-1.3-0.3-2-0.4c-1.5-0.3-3-0.7-4.4-1c-0.7-0.2-1.3-0.3-2-0.5c-0.5-0.3-1-0.6-1.6-0.8c0.3-0.8,0.5-1.4,0.7-2
		c0.8-1.7,1.5-3.3,2.3-5c0.9-1.8,1.7-3.6,2.6-5.4c0.8-1.7,1.5-3.3,2.3-5c0.8-1.6,1.6-3.3,2.4-4.9c0.7-1.5,1.4-2.9,2.1-4.4
		c1-2,1.9-4,2.9-6c0.7-1.5,1.4-2.9,2.1-4.4C578.6,268,579.5,266,580.5,264z"/>
	<path class="st1" d="M661.5,304.9c1.3-2.6,2.5-5.3,3.8-7.9c1.2-2.4,2.4-4.9,3.6-7.3c0.6-1.3,1.2-2.6,2-3.8c0.4-0.5,1.1-0.8,1.7-1.2
		c1.6,0.4,3.2,0.8,4.9,1.2c0.7,0.1,1.3,0.3,2,0.4c1.5,0.4,3,0.7,4.4,1.1c1.2,0.2,2.4,0.5,3.5,0.7c1.3,0.3,2.6,0.6,3.9,0.9
		c0.8,0.2,1.6,0.4,2.5,0.6c1.6,0.4,3.2,0.8,4.9,1.2c0.7,0.1,1.3,0.3,2,0.4c1.5,0.4,2.9,0.7,4.4,1.1c0.7,0.1,1.3,0.3,2,0.4
		c1.7,0.4,3.3,0.8,5,1.2c1,0.2,2,0.4,3,0.6c1.3,0.3,2.6,0.6,3.9,0.9c0.8,0.2,1.6,0.4,2.5,0.6c1.6,0.4,3.2,0.8,4.9,1.2
		c0.7,0.1,1.3,0.3,2,0.4c1.5,0.4,2.9,0.7,4.4,1.1c0.7,0.1,1.3,0.3,2,0.4c1.5,0.4,2.9,0.7,4.4,1.1c1.2,0.2,2.4,0.5,3.5,0.7
		c1,0.3,2,0.7,3.1,1.1c-0.7,1.7-1.4,3.2-2,4.8c-1,2.1-2,4.3-3,6.4c-1,2-1.9,3.9-2.9,5.9c-0.8,1.8-1.7,3.6-2.5,5.4
		c-1.1,2.3-2.2,4.6-3.4,7c-0.8,1.8-1.7,3.6-2.5,5.4c-1,2.1-2.1,4.3-3.1,6.4c-0.4,0.6-0.7,1.2-1.2,1.9c-1-0.2-2-0.3-3.1-0.5
		c-1.5-0.3-3-0.7-4.4-1c-0.7-0.1-1.3-0.3-2-0.4c-1-0.2-1.9-0.5-2.9-0.7c-0.5-0.1-1-0.2-1.5-0.3c-1-0.2-1.9-0.5-2.9-0.7
		c-0.5-0.1-1-0.2-1.5-0.3c-1.5-0.3-3-0.7-4.5-1c-0.7-0.1-1.3-0.3-2-0.4c-1-0.2-1.9-0.5-2.9-0.7c-0.5-0.1-1-0.2-1.5-0.3
		c-1.5-0.3-3-0.7-4.4-1c-0.7-0.1-1.3-0.3-2-0.4c-1-0.2-1.9-0.5-2.9-0.7c-0.5-0.1-1-0.2-1.5-0.3c-1.5-0.3-3-0.7-4.4-1
		c-0.7-0.2-1.3-0.3-2-0.5c-1-0.2-1.9-0.5-2.9-0.7c-0.5-0.1-1-0.2-1.6-0.3c-1.5-0.3-3-0.7-4.4-1c-0.7-0.1-1.3-0.3-2-0.4
		c-0.8-0.2-1.6-0.4-2.5-0.6c-0.7-0.1-1.3-0.3-2-0.4c-1-0.2-1.9-0.5-2.9-0.7c-0.5-0.1-1-0.2-1.5-0.3c-1.5-0.3-3-0.7-4.5-1
		c-0.7-0.1-1.3-0.3-2-0.4c-0.6-0.2-1.3-0.3-1.9-0.5c0-0.3,0-0.6,0-0.9c1.2-2.4,2.4-4.9,3.6-7.3c1.3-2.6,2.5-5.3,3.8-7.9
		C659.1,309.8,660.3,307.4,661.5,304.9z"/>
	<path class="st2" d="M318.2,251.5c7-14.5,14-29,21.1-43.6c24.7,5.8,49.2,11.5,74,17.2c-0.3,0.7-0.4,1.3-0.6,1.8
		c-6.3,13.1-12.6,26.1-18.8,39.2c-0.9,1.9-1.7,2.4-4,1.9c-13.1-3.2-26.2-6-39.4-9c-10.4-2.3-20.8-4.6-31.1-6.9
		C318.9,252,318.6,251.7,318.2,251.5z"/>
	<path class="st2" d="M302,247.5c-24.8-5.5-49.5-11.1-74.5-16.6c4.7-9.6,9.4-19,14-28.4c2.3-4.6,4.5-9.1,6.7-13.7
		c0.6-1.2,1-1.6,2.5-1.2c20.9,4.9,41.7,9.6,62.6,14.4c3.2,0.7,6.3,1.4,9.8,2.1C316.1,218.5,309.1,232.8,302,247.5z"/>
	<path class="st3" d="M573.9,748.1c0-34.1,0-68.1,0-102.2c9.7,0,19.3,0,29.1,0c0,34.1,0,68,0,102.2
		C593.3,748.1,583.7,748.1,573.9,748.1z"/>
	<path class="st2" d="M599.4,570.5c1.1,1.1,2.2,2.2,3.3,3.3c0.9,2.3,1.8,4.6,2.8,7c-0.1,2.6-0.2,5.2-0.3,7.8
		c-1.4,3.8-3.7,6.9-6.9,9.3c-0.3,0.2-0.6,0.3-0.9,0.5c-1.6,0.7-3.3,1.3-4.9,2c-1.8,0.1-3.6,0.3-5.4,0.4c-8.2-1.7-13.3-6.6-15.2-14.7
		c0-1.6,0-3.2,0-4.9c1.4-3,2.8-5.9,4.2-8.9c0.5-0.4,0.9-0.9,1.4-1.3c2-1.2,4.1-2.3,6.1-3.5c3.3,0,6.5-0.1,9.8-0.1
		c0.8,0.3,1.6,0.6,2.5,0.9c0.5,0.2,1,0.4,1.5,0.7C598,569.5,598.7,570,599.4,570.5z"/>
	<path class="st4" d="M533.3,972.2c0.2,0,0.4,0,0.7-0.1c0.1,1.2,0.2,2.4,0.3,3.6c-0.2,0-0.4,0-0.6,0.1
		C533.5,974.6,533.4,973.4,533.3,972.2z"/>
	<path class="st5" d="M213.2,629.3c0.3-0.1,0.7-0.2,1-0.3c0.1,0.1,0.1,0.3,0.2,0.4c-0.4,0.2-0.8,0.4-1.3,0.6
		C213.1,629.7,213.1,629.5,213.2,629.3z"/>
	<path class="st5" d="M369.8,629.3c0.4-0.1,0.8-0.1,1.2-0.2c0,0.2,0.1,0.3,0.1,0.5c-0.5,0.1-0.9,0.2-1.4,0.4
		C369.7,629.7,369.8,629.5,369.8,629.3z"/>
	<path class="st6" d="M154.1,629.9c0.1-0.2,0.3-0.4,0.4-0.6C154.4,629.6,154.2,629.8,154.1,629.9z"/>
	<path class="st6" d="M305.3,629.9c0.1-0.2,0.3-0.4,0.4-0.5C305.6,629.6,305.5,629.8,305.3,629.9z"/>
	<path class="st7" d="M274.1,696.4c0.1-0.1,0.3-0.2,0.4-0.2c0,0.1,0,0.2,0,0.3C274.4,696.5,274.2,696.4,274.1,696.4z"/>
	<path class="st8" d="M673.1,630.4c0-0.3,0-0.5,0-0.8c0.7-0.1,1.4-0.1,2.1-0.2c0,0.1,0.1,0.3,0.1,0.4
		C674.5,630,673.8,630.2,673.1,630.4z"/>
	<path class="st8" d="M717,629.6c0,0.1,0,0.3-0.1,0.4c-0.2-0.1-0.4-0.2-0.6-0.2C716.5,629.7,716.8,629.6,717,629.6z"/>
</g>
</svg>
