<?xml version="1.0" encoding="utf-8"?>
<!-- Generator: Adobe Illustrator 22.0.0, SVG Export Plug-In . SVG Version: 6.00 Build 0)  -->
<svg version="1.1" id="Layer_1" xmlns="http://www.w3.org/2000/svg" xmlns:xlink="http://www.w3.org/1999/xlink" x="0px" y="0px"
	 viewBox="0 0 882 256" style="enable-background:new 0 0 882 256;" xml:space="preserve">
<style type="text/css">
	.st0{fill:#1D2E54;}
	.st1{fill:#1B2D53;}
	.st2{fill:#1A2D53;}
	.st3{fill:#1B2E53;}
	.st4{fill:#F26D24;}
	.st5{fill:#1A2E53;}
	.st6{fill:#192C52;}
	.st7{fill:#1C2E54;}
	.st8{fill:#1C2F54;}
	.st9{fill:#233359;}
	.st10{fill:#27365B;}
</style>
<g>
	<path class="st0" d="M188.9,178.1c4.6,0,8.4,0,12.4,0c0,2.9,0,5.5,0,8.3c-47.2,0-94.3,0-141.6,0c0-2.6,0-5.2,0-8.2
		c3.7,0,7.5,0,11.6,0c1.2-16.3,11.1-27.2,21.9-37.7c7-6.8,13.5-14,20.1-21.1c0.7-0.7,1.2-1.7,1.8-2.6c-12.8-2.6-23.5-0.6-30,11.8
		c-3.3,6.3-6.3,12.8-9.7,19.9c-5.7,0-12.6,0-20,0c0-2.5,0-5,0-8.6c-2.8,2.2-4.8,3.7-7.3,5.7c-6.4-7.4-12.9-14.6-18.8-22.2
		c-0.9-1.2,0.1-4.8,1.3-6.5c7.1-10.1,14.4-20.1,22-29.8c4.8-6.1,8.1-12.6,9.9-20.1c0.8-3.3,2.4-5.4,5.8-6.3
		c6.9-1.7,9.7-8.1,11.8-13.3c1.6-4.1-0.9-9.9-1.6-14.9c-0.2-1.7-0.5-3.3-0.8-5.2c7-2.5,13.2-1.4,19.5,2.9c0-4.1,0-7.8,0-11.4
		c9.6-2.2,16.9,1.7,20.7,10.8c1.8,4.2,9.5,6.3,13.2,3.5c3.4-2.6,6.3-1.8,7.9,2.2c0.1,0.1,0,0.3,0.1,0.5c0.9,2,17,9.4,19.1,8.7
		c4.4-1.4,6.7,0.4,6.7,5.1c0,1.1,0.6,2.4,1.4,3.3c2.4,2.8,5,5.5,7.4,8.3c1.9,2.1,3.1,4.4,6.8,4.4c3.8,0,4.4,4.4,1.8,8.3
		c1.6,3.8,3.2,7.5,4.7,11.2c1.2,2.8,1.3,5.8,5.5,6.9c3.1,0.8,2.9,4.2,1,7c-0.8,1.2-1.5,2.9-1.3,4.4c0.4,4.6,1,9.2,1.9,13.7
		c0.2,1.1,1.3,2.2,2.3,2.8c3.3,2.3,3.5,5.2,0.5,7.9c-1.1,1-2.1,2.5-2.3,3.9c-0.4,3.8-0.4,7.7-0.6,11.6c-0.1,2.7-0.5,5.1,2.5,7.1
		c2.4,1.7,2,5.2-0.9,6.5c-2.8,1.3-3.3,3.1-3.7,5.7C191.2,167.4,190.1,172.3,188.9,178.1z M69.9,140c3.7-11.6,10.5-21,19.4-28.8
		c-1.5-2-2.8-3.7-4.2-5.4c2.3-2,4.3-3.6,7.1-6c2.6,10.1,10.4,8.1,17.4,8c2.5,0,5-0.3,7.4,0c2.8,0.3,4.3-0.8,4.9-3.5
		c1.6-7.4,3.3-14.9,5-22.4c2.2,0,4.8,0,7.6,0c0.2,16.5-4.2,31.4-14.9,43.8c-7.2,8.4-15.4,16-23,24.2c-4.2,4.5-8.4,9.2-11.6,14.3
		c-2.5,4-3.5,8.8-5.4,13.7c34.2,0,67.1,0,100.1,0c6.1-26.7,8.9-53.2,2-79.9c-7.1-27.4-23-46.8-51.5-53.9c-2.9-0.7-5.8-1-9.3-1.6
		c0,5.2,0,9.6,0,14.4c-3.2-0.6-5.8-1.1-8.6-1.6c-0.2-9.6,0.7-19.2-6-28c-0.9,7.9-1.8,14.7-2.6,21.8c-3.2-0.6-5.7-1.1-8.2-1.6
		c-0.6-5.4-1.9-10-7.9-12c0.5,3.7,1,6.8,1.3,10c0.2,1.8,0.6,4.1-0.3,5.3c-3,4.1-5.4,8.1-1.6,13.3c-4.1,1.4-7.6,2.8-11.1,3.7
		c-3.6,0.9-5.4,2.8-6.8,6.5c-1.9,5.1-4.4,10.1-7.5,14.6c-7.4,10.8-15.3,21.3-23.2,32.1c3.6,4.3,7,8.3,10.6,12.6
		c3.5-2.9,6.5-5.5,9.6-8c0.8-0.7,2.5-1.4,3.1-1c0.9,0.6,1.8,2.1,1.8,3.3c0.2,4,0.1,8,0.1,12.1C65.9,140,67.7,140,69.9,140z"/>
	<path class="st1" d="M660.8,164.6c-12.6-7-17.9-17.5-15.7-29.1c2.4-12.4,13.1-22.3,25.7-24.1c7.3-1,14.2,0.4,21.3,2.4
		c5.1,1.4,10.9,0.2,16.4,0.1c0.5,0,0.9-0.3,1.4-0.3c2.5,0,5,0.1,7.6,0.2c-0.2,1.1-0.1,2.5-0.8,3.3c-2.1,2.8-3.1,7.1-8,6.6
		c-1.8-0.2-3.7-0.2-4.3-0.2c0.5,7,2.1,14.1,1.1,20.8c-1.9,12.2-14.3,21.3-27.6,22c-2.3,0.1-4.6-0.1-6.9,0c-3.7,0.1-7.8,3.9-8.1,7.5
		c-0.3,3.2,2.6,6.1,7.2,6.3c6.5,0.3,13,0.1,19.5,0.3c3.2,0.1,6.5,0.3,9.6,1.1c15.4,4,21.2,20.6,12.4,35.3
		c-10.6,17.7-36.3,26.2-55.2,18.1c-7.2-3.1-12.8-7.9-15.1-15.8c-1.6-5.4-0.2-10,3.2-14.3c3.6-4.6,7.3-9.2,10.9-13.9
		c0.7,0.5,1.4,1.1,2,1.6c-2-1.2-4.5-2.1-6.1-3.8c-2.4-2.6-4.6-5.6-6.3-8.8c-1.2-2.2-0.4-4,2.2-5.5
		C651.7,171.7,655.8,168.2,660.8,164.6z M681.2,193.6c0-0.1,0-0.2,0-0.3c-3.2,0.2-6.5,0.2-9.7,0.6c-10.1,1.3-16.4,9.8-14.6,19.8
		c1.3,6.9,6,10.8,12.4,13.1c12.1,4.3,25.8,0.1,31-9.6c6.1-11.2,0-22.4-12.6-23.3C685.5,193.9,683.3,193.8,681.2,193.6z M691,138.1
		c-1.7-4.4-3-10.3-6.1-15c-4.6-6.9-13.3-6.8-18.6-0.7c-7.2,8.3-6.2,25.4,1.8,32.8c6.7,6.2,16.3,4.5,19.8-4
		C689.4,147.6,689.8,143.5,691,138.1z"/>
	<path class="st1" d="M373.9,186c0,11,0,21.5,0,32c0,4.3,2.4,6.5,6.3,7.3c2.7,0.5,5.5,0.8,8.4,1.2c0,1.8,0,3.5,0,5.3
		c-14,0-27.8,0-41.9,0c0-1.8,0-3.4,0-5c11.4-3.7,11.4-3.7,11.4-15.9c0-24.9,0-49.8,0-74.7c0-11.5,0-11.5-10.4-14.8
		c-1.1-3.5,0.2-4.7,3.8-5.5c7.3-1.7,14.5-4,22.1-6.3c0,3.5,0,6.8,0,11.1c4.6-2.4,8.5-4.4,12.4-6.4c12.1-6.2,25-3.1,33,8
		c10.7,14.9,7.7,39.5-7,52.9C401.3,184.9,389.1,190.3,373.9,186z M373.8,149.9c0,6.5-0.2,13,0.1,19.4c0.1,1.8,1.3,4.2,2.7,5.2
		c10.1,7.5,23.3,4.2,28.9-7c4-8,4.3-16.6,3.1-25.3c-1.1-7.9-4-14.9-11.8-18.6c-8-3.8-15-0.7-21.8,3.3c-0.8,0.5-1.2,2.3-1.3,3.6
		C373.8,136.9,373.8,143.4,373.8,149.9z"/>
	<path class="st2" d="M332.9,102c-2.5,0-4.3,0-6.1,0c-1.7-4-3.1-8.3-5.3-12.2c-4.8-8.7-12.9-12.4-22.1-10.7
		c-12.3,2.3-17.8,17.8-9.6,28.1c3.1,3.9,7.4,6.9,11.7,9.6c5.9,3.7,12.3,6.4,18.3,10c15.3,9,21.2,20.8,18,35.6
		c-2.8,13.1-15.8,24-31.1,26c-11.8,1.5-23.1-0.3-33.9-4.9c-1.5-0.6-3.2-2.7-3.4-4.2c-1.1-8.5-1.9-17.1-2.7-25.9
		c2.6-0.5,4.7-0.8,6.6-1.2c2.2,5.6,4,11,6.5,16.1c5.2,10.2,14.7,14.6,25.9,12.7c14.2-2.4,20.8-19.2,11.9-31.5
		c-3.2-4.4-8.2-7.9-12.9-10.9c-6-3.9-12.8-6.8-19-10.6C273,120,267.6,108.5,270.4,96c2.9-12.9,13.6-22.2,27.6-24.5
		c10.7-1.8,20.9,0.2,30.8,3.8c1.1,0.4,2.3,2,2.4,3.1C332,86.1,332.4,93.8,332.9,102z"/>
	<path class="st3" d="M632,180.5c0,2.1,0,3.9,0,5.7c-11.8,0-23.3,0-35,0c0-2,0-3.8,0-5.6c9-2.1,9.4-2.5,9.5-11.8
		c0.1-10.4,0.2-20.7-0.1-31.1c-0.2-9.4-4.1-14.3-11.4-15.7c-4.9-0.9-16.2,3.8-18.5,7.8c-0.6,1-0.5,2.4-0.6,3.6c0,12.2,0,24.4,0,36.6
		c0.1,8.3,0.6,8.8,8.8,10.4c0,1.9,0,3.8,0,5.5c-12.1,0-23.9,0-36.1,0c0-2,0-3.6,0-5.4c0.3-0.1,0.7-0.4,1.1-0.5
		c9-1,10.2-2.1,10.3-11.3c0.2-11.7,0.1-23.5,0-35.2c-0.1-9.4-0.3-9.5-9.5-11.7c0-1.4,0-2.9,0-4.5c8.3-2.1,16.6-4.3,25.2-6.4
		c0,3.5,0,6.9,0,11c3.7-2.4,6.6-4.9,10-6.3c5.1-2,10.5-4.6,15.7-4.5c12.4,0.2,20,8.6,20.2,21.3c0.3,12.1,0.1,24.1,0.1,36.2
		C621.7,177.7,622.7,179,632,180.5z"/>
	<path class="st4" d="M59.6,230.8c0-5.7,0-11.1,0-16.8c47.1,0,94.2,0,141.5,0c0,5.5,0,11,0,16.8C154.1,230.8,107.1,230.8,59.6,230.8
		z"/>
	<path class="st1" d="M739,147.1c0.5,10.5,3.1,19.9,12.9,25.1c10.3,5.5,20,3.5,28.6-4.7c1.4,1.8,2.5,3.4,3.6,4.9
		c-8.4,12.4-23.4,18.1-36.9,14.3c-13.5-3.8-22.8-16.1-23.5-31c-0.7-15.5,4.5-28.6,16.9-38.2c18.2-14.1,41.7-4.7,44.8,17.6
		c1,7.3-0.7,9.3-7.9,9.7C764.8,145.6,752,146.3,739,147.1z M740,138.3c9,0,17.3,0.1,25.6-0.1c1.2,0,3.1-1,3.5-2.1
		c1.8-4-1.4-11.7-5.8-15.2c-4.3-3.4-9.7-3.6-14.1-0.3C743.4,124.9,741,131.1,740,138.3z"/>
	<path class="st5" d="M797.2,122c0-1.5,0-3,0-4.5c8.5-2.1,16.9-4.2,25.7-6.4c0,5.4,0,10.8,0,16.7c3.5-4.3,6.3-8.4,9.8-11.9
		c3.5-3.5,7.8-6.2,13.3-4.5c3.8,1.2,6.5,3.4,6.9,7.7c0.4,4.6-1,8.4-5.2,10.5c-1.5,0.7-4.2,0.3-5.8-0.6c-5.8-3.6-9.8-3.2-14.1,2.2
		c-3.2,4.1-5.2,8.5-5,14c0.3,7.9,0.1,15.8,0.1,23.6c0,9,1.6,10.7,10.6,11.5c0.9,0.1,1.8,0.1,3.1,0.2c0,1.9,0,3.8,0,6
		c-13.5,0-26.9,0-40.6,0c0-1.9,0-3.8,0-5.9c1-0.1,1.9-0.2,2.8-0.3c6.7-0.9,8.2-2.5,8.3-9.2c0.1-11.9,0.1-23.8,0-35.7
		C807.2,124.6,807.2,124.6,797.2,122z"/>
	<path class="st6" d="M477.4,180.3c0,1.9,0,3.4,0,5.2c-13.3,0-26.5,0-40.2,0c-0.1-1.5-0.1-3.1-0.2-4.5c0.4-0.4,0.6-0.7,0.8-0.7
		c9.3-1.2,10.2-2.2,10.3-11.7c0.1-11.6,0.1-23.2,0-34.8c0-9-0.6-9.7-10-11.6c-0.1-1.4-0.2-2.9-0.4-4.7c8.4-2.1,16.6-4.2,25.5-6.4
		c0,5.3,0,10.7,0,17.4c3-4.1,4.8-7.4,7.4-9.8c3.4-3,7.2-5.8,11.3-7.5c4.4-1.8,9.9,1.8,11.4,6.3c1.4,4.2-1.2,10.7-5.3,12.1
		c-1.7,0.6-4.3,0.1-5.8-0.9c-5.3-3.4-9.4-3.2-13.4,1.6c-3.5,4.2-5.8,8.9-5.6,14.7c0.3,8.2-0.1,16.4,0.2,24.6
		c0.2,8.1,1.8,9.6,9.8,10.4C474.4,180.2,475.7,180.2,477.4,180.3z"/>
	<path class="st7" d="M540,180.3c0,1.8,0,3.3,0,5.1c-12.5,0-25.1,0-37.9,0c0-1.5,0-3.1,0-4.8c0.2-0.2,0.5-0.5,0.7-0.5
		c9.3-1,10.4-2.2,10.5-11.5c0.1-11.6,0.1-23.2,0-34.8c-0.1-9.9-0.4-10.2-10.4-11.8c-0.1-1.4-0.1-3-0.2-4.8
		c8.7-2.2,17.3-4.3,26.1-6.5c0,17.6,0,35.1,0,52.5c0,1.7,0,3.4,0,5.1C528.9,178.3,529.8,179.3,540,180.3z"/>
	<path class="st8" d="M530.8,84.1c0.1,5.8-4.3,10.3-10.1,10.5c-5.7,0.2-10.3-4.3-10.4-10.1c-0.1-6,4-10.5,9.8-10.7
		C525.9,73.6,530.7,78.1,530.8,84.1z"/>
	<path class="st9" d="M74.4,74.4c4.8-0.5,9.3-1,13.8-1.4c1.1,6.2,1,6.3-12.7,12.1C75.1,81.6,74.8,78.2,74.4,74.4z"/>
	<path class="st10" d="M54.9,111.7c-0.8,4.6-1.5,8.7-2.3,13.2c-2.7-1-4.5-1.7-6.4-2.4c1.1-3.6,2.1-7.1,3.1-10.7
		C50.7,111.7,52.2,111.7,54.9,111.7z"/>
</g>
</svg>
